solid
  facet normal -1.000000 -0.000000 -0.000000
    outer loop
      vertex 0.000000 12.700000 -6.350000
      vertex 0.000000 12.700000 6.350000
      vertex 0.000000 25.400000 -6.350000
    endloop
  endfacet
  facet normal -1.000000 0.000000 0.000000
    outer loop
      vertex 0.000000 25.400000 -6.350000
      vertex 0.000000 12.700000 6.350000
      vertex 0.000000 25.400000 6.350000
    endloop
  endfacet
  facet normal 0.000000 -1.000000 0.000000
    outer loop
      vertex 0.000000 12.700000 6.350000
      vertex 0.000000 12.700000 -6.350000
      vertex 1.676000 12.700000 -6.350000
    endloop
  endfacet
  facet normal 0.000000 -1.000000 0.000000
    outer loop
      vertex 1.676000 12.700000 6.350000
      vertex 0.000000 12.700000 6.350000
      vertex 1.676000 12.700000 -6.350000
    endloop
  endfacet
  facet normal -0.000000 -0.000000 -1.000000
    outer loop
      vertex 0.000000 12.700000 -6.350000
      vertex 0.000000 25.400000 -6.350000
      vertex 1.676000 12.700000 -6.350000
    endloop
  endfacet
  facet normal 0.000000 -0.000000 -1.000000
    outer loop
      vertex 2.558000 14.199000 -6.350000
      vertex 0.000000 25.400000 -6.350000
      vertex 12.700000 25.400000 -6.350000
    endloop
  endfacet
  facet normal 0.000000 0.000000 -1.000000
    outer loop
      vertex 4.057000 14.199000 -6.350000
      vertex 16.228000 21.872000 -6.350000
      vertex 17.903000 21.872000 -6.350000
    endloop
  endfacet
  facet normal 0.000000 0.000000 -1.000000
    outer loop
      vertex 17.903000 21.872000 -6.350000
      vertex 14.376000 25.400000 -6.350000
      vertex 17.903000 25.400000 -6.350000
    endloop
  endfacet
  facet normal -0.000000 -0.000000 -1.000000
    outer loop
      vertex 17.903000 21.872000 -6.350000
      vertex 17.903000 25.400000 -6.350000
      vertex 21.431000 21.872000 -6.350000
    endloop
  endfacet
  facet normal -0.000000 0.000000 -1.000000
    outer loop
      vertex 2.558000 14.199000 -6.350000
      vertex 16.228000 21.872000 -6.350000
      vertex 4.057000 14.199000 -6.350000
    endloop
  endfacet
  facet normal 0.000000 0.000000 -1.000000
    outer loop
      vertex 23.107000 21.872000 -6.350000
      vertex 19.579000 25.400000 -6.350000
      vertex 23.107000 25.400000 -6.350000
    endloop
  endfacet
  facet normal -0.000000 -0.000000 -1.000000
    outer loop
      vertex 23.107000 21.872000 -6.350000
      vertex 23.107000 25.400000 -6.350000
      vertex 26.635000 21.872000 -6.350000
    endloop
  endfacet
  facet normal 0.000000 0.000000 -1.000000
    outer loop
      vertex 28.310000 21.872000 -6.350000
      vertex 24.783000 25.400000 -6.350000
      vertex 28.310000 25.400000 -6.350000
    endloop
  endfacet
  facet normal -0.000000 -0.000000 -1.000000
    outer loop
      vertex 28.310000 21.872000 -6.350000
      vertex 28.310000 25.400000 -6.350000
      vertex 31.838000 21.872000 -6.350000
    endloop
  endfacet
  facet normal 0.000000 0.000000 -1.000000
    outer loop
      vertex 33.514000 21.872000 -6.350000
      vertex 29.986000 25.400000 -6.350000
      vertex 33.514000 25.400000 -6.350000
    endloop
  endfacet
  facet normal -0.000000 -0.000000 -1.000000
    outer loop
      vertex 33.514000 21.872000 -6.350000
      vertex 33.514000 25.400000 -6.350000
      vertex 37.042000 21.872000 -6.350000
    endloop
  endfacet
  facet normal 0.000000 -0.000000 -1.000000
    outer loop
      vertex 38.717000 21.872000 -6.350000
      vertex 35.190000 25.400000 -6.350000
      vertex 41.628000 25.400000 -6.350000
    endloop
  endfacet
  facet normal 0.000000 0.000000 -1.000000
    outer loop
      vertex 38.717000 21.872000 -6.350000
      vertex 41.628000 25.400000 -6.350000
      vertex 44.097000 24.165000 -6.350000
    endloop
  endfacet
  facet normal 0.000000 0.000000 -1.000000
    outer loop
      vertex 38.717000 21.872000 -6.350000
      vertex 44.097000 24.165000 -6.350000
      vertex 46.390000 24.165000 -6.350000
    endloop
  endfacet
  facet normal -0.000000 0.000000 -1.000000
    outer loop
      vertex 46.390000 24.165000 -6.350000
      vertex 50.800000 25.400000 -6.350000
      vertex 38.717000 21.872000 -6.350000
    endloop
  endfacet
  facet normal -0.000000 0.000000 -1.000000
    outer loop
      vertex 45.062000 20.417000 -6.350000
      vertex 50.800000 25.400000 -6.350000
      vertex 50.800000 17.463000 -6.350000
    endloop
  endfacet
  facet normal -0.000000 0.000000 -1.000000
    outer loop
      vertex 25.400000 12.700000 -6.350000
      vertex 50.800000 15.963000 -6.350000
      vertex 50.800000 12.700000 -6.350000
    endloop
  endfacet
  facet normal 0.000000 0.000000 -1.000000
    outer loop
      vertex 4.057000 14.199000 -6.350000
      vertex 23.107000 21.872000 -6.350000
      vertex 26.635000 21.872000 -6.350000
    endloop
  endfacet
  facet normal 0.000000 0.000000 -1.000000
    outer loop
      vertex 4.057000 14.199000 -6.350000
      vertex 21.431000 21.872000 -6.350000
      vertex 23.107000 21.872000 -6.350000
    endloop
  endfacet
  facet normal 0.000000 0.000000 -1.000000
    outer loop
      vertex 4.057000 14.199000 -6.350000
      vertex 26.635000 21.872000 -6.350000
      vertex 28.310000 21.872000 -6.350000
    endloop
  endfacet
  facet normal 0.000000 0.000000 -1.000000
    outer loop
      vertex 4.057000 14.199000 -6.350000
      vertex 28.310000 21.872000 -6.350000
      vertex 31.838000 21.872000 -6.350000
    endloop
  endfacet
  facet normal 0.000000 0.000000 -1.000000
    outer loop
      vertex 4.057000 14.199000 -6.350000
      vertex 31.838000 21.872000 -6.350000
      vertex 33.514000 21.872000 -6.350000
    endloop
  endfacet
  facet normal 0.000000 0.000000 -1.000000
    outer loop
      vertex 4.057000 14.199000 -6.350000
      vertex 33.514000 21.872000 -6.350000
      vertex 37.042000 21.872000 -6.350000
    endloop
  endfacet
  facet normal 0.000000 0.000000 -1.000000
    outer loop
      vertex 4.057000 14.199000 -6.350000
      vertex 37.042000 21.872000 -6.350000
      vertex 38.717000 21.872000 -6.350000
    endloop
  endfacet
  facet normal 0.000000 0.000000 -1.000000
    outer loop
      vertex 25.400000 12.700000 -6.350000
      vertex 25.400000 8.378000 -6.350000
      vertex 12.700000 12.700000 -6.350000
    endloop
  endfacet
  facet normal 0.000000 -0.000000 -1.000000
    outer loop
      vertex 25.400000 12.700000 -6.350000
      vertex 12.700000 12.700000 -6.350000
      vertex 50.800000 15.963000 -6.350000
    endloop
  endfacet
  facet normal 0.000000 0.000000 -1.000000
    outer loop
      vertex 4.057000 14.199000 -6.350000
      vertex 17.903000 21.872000 -6.350000
      vertex 21.431000 21.872000 -6.350000
    endloop
  endfacet
  facet normal 0.000000 -0.000000 -1.000000
    outer loop
      vertex 12.700000 12.700000 -6.350000
      vertex 8.378000 12.700000 -6.350000
      vertex 50.800000 15.963000 -6.350000
    endloop
  endfacet
  facet normal 0.000000 0.000000 -1.000000
    outer loop
      vertex 2.558000 14.199000 -6.350000
      vertex 12.700000 25.400000 -6.350000
      vertex 16.228000 21.872000 -6.350000
    endloop
  endfacet
  facet normal 0.000000 -0.000000 -1.000000
    outer loop
      vertex 1.676000 12.700000 -6.350000
      vertex 0.000000 25.400000 -6.350000
      vertex 2.558000 14.199000 -6.350000
    endloop
  endfacet
  facet normal 0.000000 -0.000000 -1.000000
    outer loop
      vertex 42.692000 20.417000 -6.350000
      vertex 38.717000 21.872000 -6.350000
      vertex 43.877000 21.602000 -6.350000
    endloop
  endfacet
  facet normal 0.000000 0.000000 -1.000000
    outer loop
      vertex 45.062000 20.417000 -6.350000
      vertex 50.800000 17.463000 -6.350000
      vertex 43.877000 19.232000 -6.350000
    endloop
  endfacet
  facet normal -0.000000 0.000000 -1.000000
    outer loop
      vertex 43.877000 21.602000 -6.350000
      vertex 50.800000 25.400000 -6.350000
      vertex 45.062000 20.417000 -6.350000
    endloop
  endfacet
  facet normal -0.000000 0.000000 -1.000000
    outer loop
      vertex 38.717000 21.872000 -6.350000
      vertex 50.800000 25.400000 -6.350000
      vertex 43.877000 21.602000 -6.350000
    endloop
  endfacet
  facet normal 0.000000 0.000000 -1.000000
    outer loop
      vertex 12.700000 12.700000 -6.350000
      vertex 25.400000 8.378000 -6.350000
      vertex 23.901000 4.057000 -6.350000
    endloop
  endfacet
  facet normal 0.000000 0.000000 -1.000000
    outer loop
      vertex 12.700000 12.700000 -6.350000
      vertex 23.901000 4.057000 -6.350000
      vertex 23.901000 2.558000 -6.350000
    endloop
  endfacet
  facet normal 0.000000 0.000000 -1.000000
    outer loop
      vertex 23.901000 2.558000 -6.350000
      vertex 25.400000 1.676000 -6.350000
      vertex 25.400000 0.000000 -6.350000
    endloop
  endfacet
  facet normal 0.000000 0.000000 -1.000000
    outer loop
      vertex 12.700000 12.700000 -6.350000
      vertex 23.901000 2.558000 -6.350000
      vertex 25.400000 0.000000 -6.350000
    endloop
  endfacet
  facet normal 0.000000 0.000000 -1.000000
    outer loop
      vertex 12.700000 12.700000 -6.350000
      vertex 25.400000 0.000000 -6.350000
      vertex 12.700000 0.000000 -6.350000
    endloop
  endfacet
  facet normal 0.000000 0.000000 -1.000000
    outer loop
      vertex 4.057000 14.199000 -6.350000
      vertex 38.717000 21.872000 -6.350000
      vertex 42.692000 20.417000 -6.350000
    endloop
  endfacet
  facet normal 0.000000 0.000000 -1.000000
    outer loop
      vertex 4.057000 14.199000 -6.350000
      vertex 42.692000 20.417000 -6.350000
      vertex 43.877000 19.232000 -6.350000
    endloop
  endfacet
  facet normal 0.000000 0.000000 -1.000000
    outer loop
      vertex 4.057000 14.199000 -6.350000
      vertex 43.877000 19.232000 -6.350000
      vertex 50.800000 17.463000 -6.350000
    endloop
  endfacet
  facet normal 0.000000 0.000000 -1.000000
    outer loop
      vertex 4.057000 14.199000 -6.350000
      vertex 50.800000 17.463000 -6.350000
      vertex 44.538000 15.963000 -6.350000
    endloop
  endfacet
  facet normal 0.000000 0.000000 -1.000000
    outer loop
      vertex 4.057000 14.199000 -6.350000
      vertex 44.538000 15.963000 -6.350000
      vertex 50.800000 15.963000 -6.350000
    endloop
  endfacet
  facet normal -0.000000 0.000000 -1.000000
    outer loop
      vertex 4.057000 14.199000 -6.350000
      vertex 50.800000 15.963000 -6.350000
      vertex 8.378000 12.700000 -6.350000
    endloop
  endfacet
  facet normal 0.000000 1.000000 0.000000
    outer loop
      vertex 0.000000 25.400000 -6.350000
      vertex 0.000000 25.400000 6.350000
      vertex 12.700000 25.400000 -6.350000
    endloop
  endfacet
  facet normal 0.000000 1.000000 0.000000
    outer loop
      vertex 12.700000 25.400000 -6.350000
      vertex 0.000000 25.400000 6.350000
      vertex 12.700000 25.400000 6.350000
    endloop
  endfacet
  facet normal 0.000000 -0.000000 1.000000
    outer loop
      vertex 0.000000 25.400000 6.350000
      vertex 0.000000 12.700000 6.350000
      vertex 1.676000 12.700000 6.350000
    endloop
  endfacet
  facet normal -0.000000 0.000000 1.000000
    outer loop
      vertex 4.057000 14.199000 6.350000
      vertex 0.000000 25.400000 6.350000
      vertex 2.558000 14.199000 6.350000
    endloop
  endfacet
  facet normal -0.000000 0.000000 1.000000
    outer loop
      vertex 2.558000 14.199000 6.350000
      vertex 0.000000 25.400000 6.350000
      vertex 1.676000 12.700000 6.350000
    endloop
  endfacet
  facet normal 0.000000 0.000000 1.000000
    outer loop
      vertex 8.378000 12.700000 6.350000
      vertex 0.000000 25.400000 6.350000
      vertex 4.057000 14.199000 6.350000
    endloop
  endfacet
  facet normal -0.000000 0.000000 1.000000
    outer loop
      vertex 12.700000 12.700000 6.350000
      vertex 0.000000 25.400000 6.350000
      vertex 8.378000 12.700000 6.350000
    endloop
  endfacet
  facet normal -0.000000 0.000000 1.000000
    outer loop
      vertex 25.400000 0.000000 6.350000
      vertex 12.700000 12.700000 6.350000
      vertex 12.700000 0.000000 6.350000
    endloop
  endfacet
  facet normal -0.000000 -0.000000 1.000000
    outer loop
      vertex 23.901000 2.558000 6.350000
      vertex 12.700000 12.700000 6.350000
      vertex 25.400000 0.000000 6.350000
    endloop
  endfacet
  facet normal -0.000000 0.000000 1.000000
    outer loop
      vertex 25.400000 1.676000 6.350000
      vertex 23.901000 2.558000 6.350000
      vertex 25.400000 0.000000 6.350000
    endloop
  endfacet
  facet normal 0.000000 0.000000 1.000000
    outer loop
      vertex 44.538000 15.963000 6.350000
      vertex 21.431000 21.872000 6.350000
      vertex 17.903000 21.872000 6.350000
    endloop
  endfacet
  facet normal -0.000000 0.000000 1.000000
    outer loop
      vertex 25.400000 8.378000 6.350000
      vertex 0.000000 25.400000 6.350000
      vertex 23.901000 4.057000 6.350000
    endloop
  endfacet
  facet normal -0.000000 0.000000 1.000000
    outer loop
      vertex 25.400000 12.700000 6.350000
      vertex 0.000000 25.400000 6.350000
      vertex 25.400000 8.378000 6.350000
    endloop
  endfacet
  facet normal -0.000000 0.000000 1.000000
    outer loop
      vertex 50.800000 12.700000 6.350000
      vertex 0.000000 25.400000 6.350000
      vertex 25.400000 12.700000 6.350000
    endloop
  endfacet
  facet normal -0.000000 -0.000000 1.000000
    outer loop
      vertex 16.228000 21.872000 6.350000
      vertex 0.000000 25.400000 6.350000
      vertex 50.800000 12.700000 6.350000
    endloop
  endfacet
  facet normal 0.000000 -0.000000 1.000000
    outer loop
      vertex 23.107000 21.872000 6.350000
      vertex 21.431000 21.872000 6.350000
      vertex 50.800000 17.463000 6.350000
    endloop
  endfacet
  facet normal 0.000000 0.000000 1.000000
    outer loop
      vertex 50.800000 15.963000 6.350000
      vertex 44.538000 15.963000 6.350000
      vertex 50.800000 12.700000 6.350000
    endloop
  endfacet
  facet normal 0.000000 0.000000 1.000000
    outer loop
      vertex 16.228000 21.872000 6.350000
      vertex 12.700000 25.400000 6.350000
      vertex 0.000000 25.400000 6.350000
    endloop
  endfacet
  facet normal 0.000000 -0.000000 1.000000
    outer loop
      vertex 17.903000 21.872000 6.350000
      vertex 16.228000 21.872000 6.350000
      vertex 44.538000 15.963000 6.350000
    endloop
  endfacet
  facet normal 0.000000 0.000000 1.000000
    outer loop
      vertex 50.800000 25.400000 6.350000
      vertex 46.390000 24.165000 6.350000
      vertex 50.800000 17.463000 6.350000
    endloop
  endfacet
  facet normal 0.000000 0.000000 1.000000
    outer loop
      vertex 35.190000 25.400000 6.350000
      vertex 38.717000 21.872000 6.350000
      vertex 44.097000 24.165000 6.350000
    endloop
  endfacet
  facet normal 0.000000 -0.000000 1.000000
    outer loop
      vertex 46.390000 24.165000 6.350000
      vertex 44.097000 24.165000 6.350000
      vertex 50.800000 17.463000 6.350000
    endloop
  endfacet
  facet normal 0.000000 0.000000 1.000000
    outer loop
      vertex 29.986000 25.400000 6.350000
      vertex 33.514000 21.872000 6.350000
      vertex 37.042000 21.872000 6.350000
    endloop
  endfacet
  facet normal 0.000000 0.000000 1.000000
    outer loop
      vertex 42.692000 20.417000 6.350000
      vertex 43.877000 21.602000 6.350000
      vertex 38.717000 21.872000 6.350000
    endloop
  endfacet
  facet normal 0.000000 0.000000 1.000000
    outer loop
      vertex 19.579000 25.400000 6.350000
      vertex 23.107000 21.872000 6.350000
      vertex 26.635000 21.872000 6.350000
    endloop
  endfacet
  facet normal -0.000000 -0.000000 1.000000
    outer loop
      vertex 43.877000 19.232000 6.350000
      vertex 33.514000 21.872000 6.350000
      vertex 50.800000 17.463000 6.350000
    endloop
  endfacet
  facet normal 0.000000 -0.000000 1.000000
    outer loop
      vertex 33.514000 21.872000 6.350000
      vertex 31.838000 21.872000 6.350000
      vertex 50.800000 17.463000 6.350000
    endloop
  endfacet
  facet normal 0.000000 0.000000 1.000000
    outer loop
      vertex 43.877000 19.232000 6.350000
      vertex 42.692000 20.417000 6.350000
      vertex 37.042000 21.872000 6.350000
    endloop
  endfacet
  facet normal 0.000000 -0.000000 1.000000
    outer loop
      vertex 31.838000 21.872000 6.350000
      vertex 28.310000 21.872000 6.350000
      vertex 50.800000 17.463000 6.350000
    endloop
  endfacet
  facet normal 0.000000 -0.000000 1.000000
    outer loop
      vertex 28.310000 21.872000 6.350000
      vertex 26.635000 21.872000 6.350000
      vertex 50.800000 17.463000 6.350000
    endloop
  endfacet
  facet normal 0.000000 0.000000 1.000000
    outer loop
      vertex 14.376000 25.400000 6.350000
      vertex 17.903000 21.872000 6.350000
      vertex 21.431000 21.872000 6.350000
    endloop
  endfacet
  facet normal 0.000000 -0.000000 1.000000
    outer loop
      vertex 26.635000 21.872000 6.350000
      vertex 23.107000 21.872000 6.350000
      vertex 50.800000 17.463000 6.350000
    endloop
  endfacet
  facet normal 0.000000 -0.000000 1.000000
    outer loop
      vertex 45.062000 20.417000 6.350000
      vertex 43.877000 19.232000 6.350000
      vertex 50.800000 17.463000 6.350000
    endloop
  endfacet
  facet normal 0.000000 0.000000 1.000000
    outer loop
      vertex 24.783000 25.400000 6.350000
      vertex 28.310000 21.872000 6.350000
      vertex 31.838000 21.872000 6.350000
    endloop
  endfacet
  facet normal 0.000000 0.000000 1.000000
    outer loop
      vertex 21.431000 21.872000 6.350000
      vertex 17.903000 25.400000 6.350000
      vertex 14.376000 25.400000 6.350000
    endloop
  endfacet
  facet normal -0.000000 -0.000000 1.000000
    outer loop
      vertex 44.538000 15.963000 6.350000
      vertex 16.228000 21.872000 6.350000
      vertex 50.800000 12.700000 6.350000
    endloop
  endfacet
  facet normal 0.000000 -0.000000 1.000000
    outer loop
      vertex 37.042000 21.872000 6.350000
      vertex 33.514000 21.872000 6.350000
      vertex 43.877000 19.232000 6.350000
    endloop
  endfacet
  facet normal 0.000000 -0.000000 1.000000
    outer loop
      vertex 38.717000 21.872000 6.350000
      vertex 37.042000 21.872000 6.350000
      vertex 42.692000 20.417000 6.350000
    endloop
  endfacet
  facet normal 0.000000 -0.000000 1.000000
    outer loop
      vertex 44.097000 24.165000 6.350000
      vertex 43.877000 21.602000 6.350000
      vertex 50.800000 17.463000 6.350000
    endloop
  endfacet
  facet normal 0.000000 0.000000 1.000000
    outer loop
      vertex 44.097000 24.165000 6.350000
      vertex 38.717000 21.872000 6.350000
      vertex 43.877000 21.602000 6.350000
    endloop
  endfacet
  facet normal 0.000000 0.000000 1.000000
    outer loop
      vertex 43.877000 21.602000 6.350000
      vertex 45.062000 20.417000 6.350000
      vertex 50.800000 17.463000 6.350000
    endloop
  endfacet
  facet normal 0.000000 0.000000 1.000000
    outer loop
      vertex 23.901000 2.558000 6.350000
      vertex 0.000000 25.400000 6.350000
      vertex 12.700000 12.700000 6.350000
    endloop
  endfacet
  facet normal 0.000000 0.000000 1.000000
    outer loop
      vertex 23.901000 2.558000 6.350000
      vertex 23.901000 4.057000 6.350000
      vertex 0.000000 25.400000 6.350000
    endloop
  endfacet
  facet normal 0.000000 0.000000 1.000000
    outer loop
      vertex 44.538000 15.963000 6.350000
      vertex 50.800000 17.463000 6.350000
      vertex 21.431000 21.872000 6.350000
    endloop
  endfacet
  facet normal 0.000000 0.000000 1.000000
    outer loop
      vertex 26.635000 21.872000 6.350000
      vertex 23.107000 25.400000 6.350000
      vertex 19.579000 25.400000 6.350000
    endloop
  endfacet
  facet normal 0.000000 0.000000 1.000000
    outer loop
      vertex 31.838000 21.872000 6.350000
      vertex 28.310000 25.400000 6.350000
      vertex 24.783000 25.400000 6.350000
    endloop
  endfacet
  facet normal 0.000000 0.000000 1.000000
    outer loop
      vertex 37.042000 21.872000 6.350000
      vertex 33.514000 25.400000 6.350000
      vertex 29.986000 25.400000 6.350000
    endloop
  endfacet
  facet normal 0.000000 0.000000 1.000000
    outer loop
      vertex 44.097000 24.165000 6.350000
      vertex 41.628000 25.400000 6.350000
      vertex 35.190000 25.400000 6.350000
    endloop
  endfacet
  facet normal 0.861875 -0.507121 0.000000
    outer loop
      vertex 1.676000 12.700000 6.350000
      vertex 1.676000 12.700000 -6.350000
      vertex 2.558000 14.199000 -6.350000
    endloop
  endfacet
  facet normal 0.861875 -0.507121 0.000000
    outer loop
      vertex 2.558000 14.199000 6.350000
      vertex 1.676000 12.700000 6.350000
      vertex 2.558000 14.199000 -6.350000
    endloop
  endfacet
  facet normal 0.000000 -1.000000 0.000000
    outer loop
      vertex 2.558000 14.199000 6.350000
      vertex 2.558000 14.199000 -6.350000
      vertex 4.057000 14.199000 -6.350000
    endloop
  endfacet
  facet normal 0.000000 -1.000000 0.000000
    outer loop
      vertex 4.057000 14.199000 6.350000
      vertex 2.558000 14.199000 6.350000
      vertex 4.057000 14.199000 -6.350000
    endloop
  endfacet
  facet normal -0.327749 -0.944765 0.000000
    outer loop
      vertex 4.057000 14.199000 6.350000
      vertex 4.057000 14.199000 -6.350000
      vertex 8.378000 12.700000 -6.350000
    endloop
  endfacet
  facet normal -0.327749 -0.944765 0.000000
    outer loop
      vertex 8.378000 12.700000 6.350000
      vertex 4.057000 14.199000 6.350000
      vertex 8.378000 12.700000 -6.350000
    endloop
  endfacet
  facet normal 0.000000 -1.000000 0.000000
    outer loop
      vertex 8.378000 12.700000 6.350000
      vertex 8.378000 12.700000 -6.350000
      vertex 12.700000 12.700000 -6.350000
    endloop
  endfacet
  facet normal 0.000000 -1.000000 0.000000
    outer loop
      vertex 12.700000 12.700000 6.350000
      vertex 8.378000 12.700000 6.350000
      vertex 12.700000 12.700000 -6.350000
    endloop
  endfacet
  facet normal -1.000000 -0.000000 -0.000000
    outer loop
      vertex 12.700000 0.000000 -6.350000
      vertex 12.700000 0.000000 6.350000
      vertex 12.700000 12.700000 -6.350000
    endloop
  endfacet
  facet normal -1.000000 0.000000 0.000000
    outer loop
      vertex 12.700000 12.700000 -6.350000
      vertex 12.700000 0.000000 6.350000
      vertex 12.700000 12.700000 6.350000
    endloop
  endfacet
  facet normal 0.000000 -1.000000 0.000000
    outer loop
      vertex 12.700000 0.000000 6.350000
      vertex 12.700000 0.000000 -6.350000
      vertex 25.400000 0.000000 -6.350000
    endloop
  endfacet
  facet normal 0.000000 -1.000000 0.000000
    outer loop
      vertex 25.400000 0.000000 6.350000
      vertex 12.700000 0.000000 6.350000
      vertex 25.400000 0.000000 -6.350000
    endloop
  endfacet
  facet normal 1.000000 0.000000 -0.000000
    outer loop
      vertex 25.400000 0.000000 6.350000
      vertex 25.400000 0.000000 -6.350000
      vertex 25.400000 1.676000 -6.350000
    endloop
  endfacet
  facet normal 1.000000 0.000000 0.000000
    outer loop
      vertex 25.400000 1.676000 6.350000
      vertex 25.400000 0.000000 6.350000
      vertex 25.400000 1.676000 -6.350000
    endloop
  endfacet
  facet normal 0.507121 0.861875 0.000000
    outer loop
      vertex 23.901000 2.558000 -6.350000
      vertex 23.901000 2.558000 6.350000
      vertex 25.400000 1.676000 -6.350000
    endloop
  endfacet
  facet normal 0.507121 0.861875 0.000000
    outer loop
      vertex 25.400000 1.676000 -6.350000
      vertex 23.901000 2.558000 6.350000
      vertex 25.400000 1.676000 6.350000
    endloop
  endfacet
  facet normal 1.000000 0.000000 -0.000000
    outer loop
      vertex 23.901000 2.558000 6.350000
      vertex 23.901000 2.558000 -6.350000
      vertex 23.901000 4.057000 -6.350000
    endloop
  endfacet
  facet normal 1.000000 0.000000 0.000000
    outer loop
      vertex 23.901000 4.057000 6.350000
      vertex 23.901000 2.558000 6.350000
      vertex 23.901000 4.057000 -6.350000
    endloop
  endfacet
  facet normal 0.944765 -0.327749 0.000000
    outer loop
      vertex 23.901000 4.057000 6.350000
      vertex 23.901000 4.057000 -6.350000
      vertex 25.400000 8.378000 -6.350000
    endloop
  endfacet
  facet normal 0.944765 -0.327749 0.000000
    outer loop
      vertex 25.400000 8.378000 6.350000
      vertex 23.901000 4.057000 6.350000
      vertex 25.400000 8.378000 -6.350000
    endloop
  endfacet
  facet normal 1.000000 0.000000 -0.000000
    outer loop
      vertex 25.400000 8.378000 6.350000
      vertex 25.400000 8.378000 -6.350000
      vertex 25.400000 12.700000 -6.350000
    endloop
  endfacet
  facet normal 1.000000 0.000000 0.000000
    outer loop
      vertex 25.400000 12.700000 6.350000
      vertex 25.400000 8.378000 6.350000
      vertex 25.400000 12.700000 -6.350000
    endloop
  endfacet
  facet normal 0.000000 -1.000000 0.000000
    outer loop
      vertex 25.400000 12.700000 6.350000
      vertex 25.400000 12.700000 -6.350000
      vertex 50.800000 12.700000 -6.350000
    endloop
  endfacet
  facet normal 0.000000 -1.000000 0.000000
    outer loop
      vertex 50.800000 12.700000 6.350000
      vertex 25.400000 12.700000 6.350000
      vertex 50.800000 12.700000 -6.350000
    endloop
  endfacet
  facet normal 1.000000 0.000000 -0.000000
    outer loop
      vertex 50.800000 12.700000 6.350000
      vertex 50.800000 12.700000 -6.350000
      vertex 50.800000 15.963000 -6.350000
    endloop
  endfacet
  facet normal 1.000000 0.000000 0.000000
    outer loop
      vertex 50.800000 15.963000 6.350000
      vertex 50.800000 12.700000 6.350000
      vertex 50.800000 15.963000 -6.350000
    endloop
  endfacet
  facet normal 0.000000 1.000000 0.000000
    outer loop
      vertex 44.538000 15.963000 -6.350000
      vertex 44.538000 15.963000 6.350000
      vertex 50.800000 15.963000 -6.350000
    endloop
  endfacet
  facet normal 0.000000 1.000000 0.000000
    outer loop
      vertex 50.800000 15.963000 -6.350000
      vertex 44.538000 15.963000 6.350000
      vertex 50.800000 15.963000 6.350000
    endloop
  endfacet
  facet normal 0.232950 -0.972489 0.000000
    outer loop
      vertex 44.538000 15.963000 6.350000
      vertex 44.538000 15.963000 -6.350000
      vertex 50.800000 17.463000 -6.350000
    endloop
  endfacet
  facet normal 0.232950 -0.972489 0.000000
    outer loop
      vertex 50.800000 17.463000 6.350000
      vertex 44.538000 15.963000 6.350000
      vertex 50.800000 17.463000 -6.350000
    endloop
  endfacet
  facet normal 1.000000 0.000000 -0.000000
    outer loop
      vertex 50.800000 17.463000 6.350000
      vertex 50.800000 17.463000 -6.350000
      vertex 50.800000 25.400000 -6.350000
    endloop
  endfacet
  facet normal 1.000000 0.000000 0.000000
    outer loop
      vertex 50.800000 25.400000 6.350000
      vertex 50.800000 17.463000 6.350000
      vertex 50.800000 25.400000 -6.350000
    endloop
  endfacet
  facet normal -0.269670 0.962953 0.000000
    outer loop
      vertex 46.390000 24.165000 -6.350000
      vertex 46.390000 24.165000 6.350000
      vertex 50.800000 25.400000 -6.350000
    endloop
  endfacet
  facet normal -0.269670 0.962953 0.000000
    outer loop
      vertex 50.800000 25.400000 -6.350000
      vertex 46.390000 24.165000 6.350000
      vertex 50.800000 25.400000 6.350000
    endloop
  endfacet
  facet normal 0.000000 1.000000 0.000000
    outer loop
      vertex 44.097000 24.165000 -6.350000
      vertex 44.097000 24.165000 6.350000
      vertex 46.390000 24.165000 -6.350000
    endloop
  endfacet
  facet normal 0.000000 1.000000 0.000000
    outer loop
      vertex 46.390000 24.165000 -6.350000
      vertex 44.097000 24.165000 6.350000
      vertex 46.390000 24.165000 6.350000
    endloop
  endfacet
  facet normal 0.447358 0.894355 0.000000
    outer loop
      vertex 41.628000 25.400000 -6.350000
      vertex 41.628000 25.400000 6.350000
      vertex 44.097000 24.165000 -6.350000
    endloop
  endfacet
  facet normal 0.447358 0.894355 0.000000
    outer loop
      vertex 44.097000 24.165000 -6.350000
      vertex 41.628000 25.400000 6.350000
      vertex 44.097000 24.165000 6.350000
    endloop
  endfacet
  facet normal 0.000000 1.000000 0.000000
    outer loop
      vertex 35.190000 25.400000 -6.350000
      vertex 35.190000 25.400000 6.350000
      vertex 41.628000 25.400000 -6.350000
    endloop
  endfacet
  facet normal 0.000000 1.000000 0.000000
    outer loop
      vertex 41.628000 25.400000 -6.350000
      vertex 35.190000 25.400000 6.350000
      vertex 41.628000 25.400000 6.350000
    endloop
  endfacet
  facet normal -0.707207 -0.707007 -0.000000
    outer loop
      vertex 35.190000 25.400000 -6.350000
      vertex 38.717000 21.872000 -6.350000
      vertex 35.190000 25.400000 6.350000
    endloop
  endfacet
  facet normal -0.707207 -0.707007 0.000000
    outer loop
      vertex 35.190000 25.400000 6.350000
      vertex 38.717000 21.872000 -6.350000
      vertex 38.717000 21.872000 6.350000
    endloop
  endfacet
  facet normal 0.000000 1.000000 0.000000
    outer loop
      vertex 37.042000 21.872000 -6.350000
      vertex 37.042000 21.872000 6.350000
      vertex 38.717000 21.872000 -6.350000
    endloop
  endfacet
  facet normal 0.000000 1.000000 0.000000
    outer loop
      vertex 38.717000 21.872000 -6.350000
      vertex 37.042000 21.872000 6.350000
      vertex 38.717000 21.872000 6.350000
    endloop
  endfacet
  facet normal 0.707107 0.707107 0.000000
    outer loop
      vertex 37.042000 21.872000 -6.350000
      vertex 33.514000 25.400000 -6.350000
      vertex 33.514000 25.400000 6.350000
    endloop
  endfacet
  facet normal 0.707107 0.707107 -0.000000
    outer loop
      vertex 37.042000 21.872000 6.350000
      vertex 37.042000 21.872000 -6.350000
      vertex 33.514000 25.400000 6.350000
    endloop
  endfacet
  facet normal 0.000000 1.000000 0.000000
    outer loop
      vertex 29.986000 25.400000 -6.350000
      vertex 29.986000 25.400000 6.350000
      vertex 33.514000 25.400000 -6.350000
    endloop
  endfacet
  facet normal 0.000000 1.000000 0.000000
    outer loop
      vertex 33.514000 25.400000 -6.350000
      vertex 29.986000 25.400000 6.350000
      vertex 33.514000 25.400000 6.350000
    endloop
  endfacet
  facet normal -0.707107 -0.707107 0.000000
    outer loop
      vertex 29.986000 25.400000 6.350000
      vertex 29.986000 25.400000 -6.350000
      vertex 33.514000 21.872000 -6.350000
    endloop
  endfacet
  facet normal -0.707107 -0.707107 0.000000
    outer loop
      vertex 33.514000 21.872000 6.350000
      vertex 29.986000 25.400000 6.350000
      vertex 33.514000 21.872000 -6.350000
    endloop
  endfacet
  facet normal 0.000000 1.000000 0.000000
    outer loop
      vertex 31.838000 21.872000 -6.350000
      vertex 31.838000 21.872000 6.350000
      vertex 33.514000 21.872000 -6.350000
    endloop
  endfacet
  facet normal 0.000000 1.000000 0.000000
    outer loop
      vertex 33.514000 21.872000 -6.350000
      vertex 31.838000 21.872000 6.350000
      vertex 33.514000 21.872000 6.350000
    endloop
  endfacet
  facet normal 0.707107 0.707107 0.000000
    outer loop
      vertex 31.838000 21.872000 -6.350000
      vertex 28.310000 25.400000 -6.350000
      vertex 28.310000 25.400000 6.350000
    endloop
  endfacet
  facet normal 0.707107 0.707107 -0.000000
    outer loop
      vertex 31.838000 21.872000 6.350000
      vertex 31.838000 21.872000 -6.350000
      vertex 28.310000 25.400000 6.350000
    endloop
  endfacet
  facet normal 0.000000 1.000000 0.000000
    outer loop
      vertex 24.783000 25.400000 -6.350000
      vertex 24.783000 25.400000 6.350000
      vertex 28.310000 25.400000 -6.350000
    endloop
  endfacet
  facet normal 0.000000 1.000000 0.000000
    outer loop
      vertex 28.310000 25.400000 -6.350000
      vertex 24.783000 25.400000 6.350000
      vertex 28.310000 25.400000 6.350000
    endloop
  endfacet
  facet normal -0.707207 -0.707007 -0.000000
    outer loop
      vertex 24.783000 25.400000 -6.350000
      vertex 28.310000 21.872000 -6.350000
      vertex 24.783000 25.400000 6.350000
    endloop
  endfacet
  facet normal -0.707207 -0.707007 0.000000
    outer loop
      vertex 24.783000 25.400000 6.350000
      vertex 28.310000 21.872000 -6.350000
      vertex 28.310000 21.872000 6.350000
    endloop
  endfacet
  facet normal 0.000000 1.000000 0.000000
    outer loop
      vertex 26.635000 21.872000 -6.350000
      vertex 26.635000 21.872000 6.350000
      vertex 28.310000 21.872000 -6.350000
    endloop
  endfacet
  facet normal 0.000000 1.000000 0.000000
    outer loop
      vertex 28.310000 21.872000 -6.350000
      vertex 26.635000 21.872000 6.350000
      vertex 28.310000 21.872000 6.350000
    endloop
  endfacet
  facet normal 0.707107 0.707107 0.000000
    outer loop
      vertex 23.107000 25.400000 -6.350000
      vertex 23.107000 25.400000 6.350000
      vertex 26.635000 21.872000 -6.350000
    endloop
  endfacet
  facet normal 0.707107 0.707107 0.000000
    outer loop
      vertex 26.635000 21.872000 -6.350000
      vertex 23.107000 25.400000 6.350000
      vertex 26.635000 21.872000 6.350000
    endloop
  endfacet
  facet normal 0.000000 1.000000 0.000000
    outer loop
      vertex 19.579000 25.400000 -6.350000
      vertex 19.579000 25.400000 6.350000
      vertex 23.107000 25.400000 -6.350000
    endloop
  endfacet
  facet normal 0.000000 1.000000 0.000000
    outer loop
      vertex 23.107000 25.400000 -6.350000
      vertex 19.579000 25.400000 6.350000
      vertex 23.107000 25.400000 6.350000
    endloop
  endfacet
  facet normal -0.707107 -0.707107 -0.000000
    outer loop
      vertex 19.579000 25.400000 -6.350000
      vertex 23.107000 21.872000 -6.350000
      vertex 19.579000 25.400000 6.350000
    endloop
  endfacet
  facet normal -0.707107 -0.707107 0.000000
    outer loop
      vertex 19.579000 25.400000 6.350000
      vertex 23.107000 21.872000 -6.350000
      vertex 23.107000 21.872000 6.350000
    endloop
  endfacet
  facet normal 0.000000 1.000000 0.000000
    outer loop
      vertex 21.431000 21.872000 -6.350000
      vertex 21.431000 21.872000 6.350000
      vertex 23.107000 21.872000 -6.350000
    endloop
  endfacet
  facet normal 0.000000 1.000000 0.000000
    outer loop
      vertex 23.107000 21.872000 -6.350000
      vertex 21.431000 21.872000 6.350000
      vertex 23.107000 21.872000 6.350000
    endloop
  endfacet
  facet normal 0.707107 0.707107 0.000000
    outer loop
      vertex 17.903000 25.400000 -6.350000
      vertex 17.903000 25.400000 6.350000
      vertex 21.431000 21.872000 -6.350000
    endloop
  endfacet
  facet normal 0.707107 0.707107 0.000000
    outer loop
      vertex 21.431000 21.872000 -6.350000
      vertex 17.903000 25.400000 6.350000
      vertex 21.431000 21.872000 6.350000
    endloop
  endfacet
  facet normal 0.000000 1.000000 0.000000
    outer loop
      vertex 14.376000 25.400000 -6.350000
      vertex 14.376000 25.400000 6.350000
      vertex 17.903000 25.400000 -6.350000
    endloop
  endfacet
  facet normal 0.000000 1.000000 0.000000
    outer loop
      vertex 17.903000 25.400000 -6.350000
      vertex 14.376000 25.400000 6.350000
      vertex 17.903000 25.400000 6.350000
    endloop
  endfacet
  facet normal -0.707207 -0.707007 -0.000000
    outer loop
      vertex 14.376000 25.400000 -6.350000
      vertex 17.903000 21.872000 -6.350000
      vertex 14.376000 25.400000 6.350000
    endloop
  endfacet
  facet normal -0.707207 -0.707007 0.000000
    outer loop
      vertex 14.376000 25.400000 6.350000
      vertex 17.903000 21.872000 -6.350000
      vertex 17.903000 21.872000 6.350000
    endloop
  endfacet
  facet normal 0.000000 1.000000 0.000000
    outer loop
      vertex 16.228000 21.872000 -6.350000
      vertex 16.228000 21.872000 6.350000
      vertex 17.903000 21.872000 -6.350000
    endloop
  endfacet
  facet normal 0.000000 1.000000 0.000000
    outer loop
      vertex 17.903000 21.872000 -6.350000
      vertex 16.228000 21.872000 6.350000
      vertex 17.903000 21.872000 6.350000
    endloop
  endfacet
  facet normal 0.707107 0.707107 0.000000
    outer loop
      vertex 16.228000 21.872000 -6.350000
      vertex 12.700000 25.400000 -6.350000
      vertex 12.700000 25.400000 6.350000
    endloop
  endfacet
  facet normal 0.707107 0.707107 -0.000000
    outer loop
      vertex 16.228000 21.872000 6.350000
      vertex 16.228000 21.872000 -6.350000
      vertex 12.700000 25.400000 6.350000
    endloop
  endfacet
  facet normal 0.707107 -0.707107 0.000000
    outer loop
      vertex 42.692000 20.417000 6.350000
      vertex 42.692000 20.417000 -6.350000
      vertex 43.877000 21.602000 -6.350000
    endloop
  endfacet
  facet normal 0.707107 -0.707107 0.000000
    outer loop
      vertex 43.877000 21.602000 6.350000
      vertex 42.692000 20.417000 6.350000
      vertex 43.877000 21.602000 -6.350000
    endloop
  endfacet
  facet normal 0.707107 0.707107 0.000000
    outer loop
      vertex 42.692000 20.417000 -6.350000
      vertex 42.692000 20.417000 6.350000
      vertex 43.877000 19.232000 -6.350000
    endloop
  endfacet
  facet normal 0.707107 0.707107 0.000000
    outer loop
      vertex 43.877000 19.232000 -6.350000
      vertex 42.692000 20.417000 6.350000
      vertex 43.877000 19.232000 6.350000
    endloop
  endfacet
  facet normal -0.707107 -0.707107 -0.000000
    outer loop
      vertex 43.877000 21.602000 -6.350000
      vertex 45.062000 20.417000 -6.350000
      vertex 43.877000 21.602000 6.350000
    endloop
  endfacet
  facet normal -0.707107 -0.707107 0.000000
    outer loop
      vertex 43.877000 21.602000 6.350000
      vertex 45.062000 20.417000 -6.350000
      vertex 45.062000 20.417000 6.350000
    endloop
  endfacet
  facet normal -0.707107 0.707107 0.000000
    outer loop
      vertex 43.877000 19.232000 -6.350000
      vertex 43.877000 19.232000 6.350000
      vertex 45.062000 20.417000 -6.350000
    endloop
  endfacet
  facet normal -0.707107 0.707107 0.000000
    outer loop
      vertex 45.062000 20.417000 -6.350000
      vertex 43.877000 19.232000 6.350000
      vertex 45.062000 20.417000 6.350000
    endloop
  endfacet
endsolid
