solid
  facet normal -0.707107 -0.707107 0.000000
    outer loop
      vertex 0.000000 15.052000 6.350000
      vertex 0.000000 15.052000 -6.350000
      vertex 0.588000 14.464000 -6.350000
    endloop
  endfacet
  facet normal -0.707107 -0.707107 0.000000
    outer loop
      vertex 0.588000 14.464000 6.350000
      vertex 0.000000 15.052000 6.350000
      vertex 0.588000 14.464000 -6.350000
    endloop
  endfacet
  facet normal -0.000000 -0.000000 -1.000000
    outer loop
      vertex 0.000000 15.052000 -6.350000
      vertex 0.000000 23.754000 -6.350000
      vertex 0.588000 14.464000 -6.350000
    endloop
  endfacet
  facet normal 0.000000 -0.000000 -1.000000
    outer loop
      vertex 0.588000 14.464000 -6.350000
      vertex 0.000000 23.754000 -6.350000
      vertex 3.116000 25.400000 -6.350000
    endloop
  endfacet
  facet normal 0.000000 -0.000000 -1.000000
    outer loop
      vertex 4.503000 21.360000 -6.350000
      vertex 3.116000 25.400000 -6.350000
      vertex 12.700000 25.400000 -6.350000
    endloop
  endfacet
  facet normal 0.000000 -0.000000 -1.000000
    outer loop
      vertex 12.700000 25.400000 -6.350000
      vertex 12.700000 38.100000 -6.350000
      vertex 21.813000 38.100000 -6.350000
    endloop
  endfacet
  facet normal 0.000000 0.000000 -1.000000
    outer loop
      vertex 12.700000 25.400000 -6.350000
      vertex 21.813000 38.100000 -6.350000
      vertex 25.400000 34.513000 -6.350000
    endloop
  endfacet
  facet normal 0.000000 0.000000 -1.000000
    outer loop
      vertex 25.400000 34.513000 -6.350000
      vertex 28.987000 38.100000 -6.350000
      vertex 38.100000 38.100000 -6.350000
    endloop
  endfacet
  facet normal 0.000000 0.000000 -1.000000
    outer loop
      vertex 35.278000 25.400000 -6.350000
      vertex 38.100000 38.100000 -6.350000
      vertex 38.100000 26.047000 -6.350000
    endloop
  endfacet
  facet normal -0.000000 0.000000 -1.000000
    outer loop
      vertex 33.103000 27.575000 -6.350000
      vertex 38.100000 38.100000 -6.350000
      vertex 35.278000 25.400000 -6.350000
    endloop
  endfacet
  facet normal -0.000000 0.000000 -1.000000
    outer loop
      vertex 25.400000 25.400000 -6.350000
      vertex 33.103000 27.575000 -6.350000
      vertex 30.927000 25.400000 -6.350000
    endloop
  endfacet
  facet normal 0.000000 0.000000 -1.000000
    outer loop
      vertex 25.400000 25.400000 -6.350000
      vertex 38.100000 38.100000 -6.350000
      vertex 33.103000 27.575000 -6.350000
    endloop
  endfacet
  facet normal 0.000000 0.000000 -1.000000
    outer loop
      vertex 25.400000 16.286000 -6.350000
      vertex 12.700000 15.404000 -6.350000
      vertex 25.400000 25.400000 -6.350000
    endloop
  endfacet
  facet normal 0.000000 0.000000 -1.000000
    outer loop
      vertex 12.700000 2.822000 -6.350000
      vertex 13.347000 0.000000 -6.350000
      vertex 12.700000 0.647000 -6.350000
    endloop
  endfacet
  facet normal 0.000000 0.000000 -1.000000
    outer loop
      vertex 3.910000 17.786000 -6.350000
      vertex 12.700000 15.404000 -6.350000
      vertex 9.996000 12.700000 -6.350000
    endloop
  endfacet
  facet normal 0.000000 0.000000 -1.000000
    outer loop
      vertex 3.910000 17.786000 -6.350000
      vertex 9.996000 12.700000 -6.350000
      vertex 2.352000 12.700000 -6.350000
    endloop
  endfacet
  facet normal 0.000000 0.000000 -1.000000
    outer loop
      vertex 12.700000 2.822000 -6.350000
      vertex 25.400000 0.000000 -6.350000
      vertex 13.347000 0.000000 -6.350000
    endloop
  endfacet
  facet normal 0.000000 0.000000 -1.000000
    outer loop
      vertex 12.700000 15.404000 -6.350000
      vertex 25.400000 0.000000 -6.350000
      vertex 12.700000 7.173000 -6.350000
    endloop
  endfacet
  facet normal -0.000000 0.000000 -1.000000
    outer loop
      vertex 3.910000 17.786000 -6.350000
      vertex 25.400000 25.400000 -6.350000
      vertex 12.700000 15.404000 -6.350000
    endloop
  endfacet
  facet normal 0.000000 0.000000 -1.000000
    outer loop
      vertex 14.875000 4.997000 -6.350000
      vertex 25.400000 0.000000 -6.350000
      vertex 12.700000 2.822000 -6.350000
    endloop
  endfacet
  facet normal -0.000000 0.000000 -1.000000
    outer loop
      vertex 12.700000 15.404000 -6.350000
      vertex 25.400000 16.286000 -6.350000
      vertex 21.813000 12.700000 -6.350000
    endloop
  endfacet
  facet normal 0.000000 0.000000 -1.000000
    outer loop
      vertex 12.700000 7.173000 -6.350000
      vertex 25.400000 0.000000 -6.350000
      vertex 14.875000 4.997000 -6.350000
    endloop
  endfacet
  facet normal 0.000000 0.000000 -1.000000
    outer loop
      vertex 3.910000 17.786000 -6.350000
      vertex 25.400000 34.513000 -6.350000
      vertex 38.100000 38.100000 -6.350000
    endloop
  endfacet
  facet normal 0.000000 0.000000 -1.000000
    outer loop
      vertex 3.910000 17.786000 -6.350000
      vertex 2.352000 12.700000 -6.350000
      vertex 1.529000 13.523000 -6.350000
    endloop
  endfacet
  facet normal 0.000000 0.000000 -1.000000
    outer loop
      vertex 3.910000 17.786000 -6.350000
      vertex 38.100000 38.100000 -6.350000
      vertex 25.400000 25.400000 -6.350000
    endloop
  endfacet
  facet normal 0.000000 0.000000 -1.000000
    outer loop
      vertex 3.910000 17.786000 -6.350000
      vertex 12.700000 25.400000 -6.350000
      vertex 25.400000 34.513000 -6.350000
    endloop
  endfacet
  facet normal 0.000000 0.000000 -1.000000
    outer loop
      vertex 12.700000 15.404000 -6.350000
      vertex 21.813000 12.700000 -6.350000
      vertex 25.400000 9.113000 -6.350000
    endloop
  endfacet
  facet normal 0.000000 0.000000 -1.000000
    outer loop
      vertex 12.700000 15.404000 -6.350000
      vertex 25.400000 9.113000 -6.350000
      vertex 25.400000 0.000000 -6.350000
    endloop
  endfacet
  facet normal 0.000000 0.000000 -1.000000
    outer loop
      vertex 3.882000 20.505000 -6.350000
      vertex 3.910000 17.786000 -6.350000
      vertex 2.876000 20.832000 -6.350000
    endloop
  endfacet
  facet normal 0.000000 0.000000 -1.000000
    outer loop
      vertex 2.876000 21.889000 -6.350000
      vertex 3.116000 25.400000 -6.350000
      vertex 3.882000 22.216000 -6.350000
    endloop
  endfacet
  facet normal 0.000000 0.000000 -1.000000
    outer loop
      vertex 0.588000 14.464000 -6.350000
      vertex 3.116000 25.400000 -6.350000
      vertex 2.876000 21.889000 -6.350000
    endloop
  endfacet
  facet normal 0.000000 0.000000 -1.000000
    outer loop
      vertex 0.588000 14.464000 -6.350000
      vertex 2.876000 21.889000 -6.350000
      vertex 2.876000 20.832000 -6.350000
    endloop
  endfacet
  facet normal 0.000000 0.000000 -1.000000
    outer loop
      vertex 0.588000 14.464000 -6.350000
      vertex 2.876000 20.832000 -6.350000
      vertex 3.910000 17.786000 -6.350000
    endloop
  endfacet
  facet normal 0.000000 -0.000000 -1.000000
    outer loop
      vertex 3.910000 17.786000 -6.350000
      vertex 3.882000 20.505000 -6.350000
      vertex 12.700000 25.400000 -6.350000
    endloop
  endfacet
  facet normal -0.000000 -0.000000 -1.000000
    outer loop
      vertex 3.882000 22.216000 -6.350000
      vertex 3.116000 25.400000 -6.350000
      vertex 4.503000 21.360000 -6.350000
    endloop
  endfacet
  facet normal 0.000000 0.000000 -1.000000
    outer loop
      vertex 3.882000 20.505000 -6.350000
      vertex 4.503000 21.360000 -6.350000
      vertex 12.700000 25.400000 -6.350000
    endloop
  endfacet
  facet normal -0.000000 0.000000 -1.000000
    outer loop
      vertex 35.278000 25.400000 -6.350000
      vertex 38.100000 26.047000 -6.350000
      vertex 37.453000 25.400000 -6.350000
    endloop
  endfacet
  facet normal -1.000000 -0.000000 -0.000000
    outer loop
      vertex 0.000000 15.052000 -6.350000
      vertex 0.000000 15.052000 6.350000
      vertex 0.000000 23.754000 -6.350000
    endloop
  endfacet
  facet normal -1.000000 0.000000 0.000000
    outer loop
      vertex 0.000000 23.754000 -6.350000
      vertex 0.000000 15.052000 6.350000
      vertex 0.000000 23.754000 6.350000
    endloop
  endfacet
  facet normal 0.000000 -0.000000 1.000000
    outer loop
      vertex 0.000000 23.754000 6.350000
      vertex 0.000000 15.052000 6.350000
      vertex 0.588000 14.464000 6.350000
    endloop
  endfacet
  facet normal 0.000000 0.000000 1.000000
    outer loop
      vertex 9.996000 12.700000 6.350000
      vertex 0.000000 23.754000 6.350000
      vertex 3.910000 17.786000 6.350000
    endloop
  endfacet
  facet normal -0.000000 0.000000 1.000000
    outer loop
      vertex 3.910000 17.786000 6.350000
      vertex 0.000000 23.754000 6.350000
      vertex 0.588000 14.464000 6.350000
    endloop
  endfacet
  facet normal 0.000000 0.000000 1.000000
    outer loop
      vertex 2.352000 12.700000 6.350000
      vertex 3.910000 17.786000 6.350000
      vertex 1.529000 13.523000 6.350000
    endloop
  endfacet
  facet normal -0.000000 0.000000 1.000000
    outer loop
      vertex 9.996000 12.700000 6.350000
      vertex 3.910000 17.786000 6.350000
      vertex 2.352000 12.700000 6.350000
    endloop
  endfacet
  facet normal -0.000000 -0.000000 1.000000
    outer loop
      vertex 2.876000 20.832000 6.350000
      vertex 0.000000 23.754000 6.350000
      vertex 9.996000 12.700000 6.350000
    endloop
  endfacet
  facet normal 0.000000 0.000000 1.000000
    outer loop
      vertex 3.882000 22.216000 6.350000
      vertex 4.503000 21.360000 6.350000
      vertex 21.813000 12.700000 6.350000
    endloop
  endfacet
  facet normal 0.000000 0.000000 1.000000
    outer loop
      vertex 14.875000 4.997000 6.350000
      vertex 12.700000 15.404000 6.350000
      vertex 12.700000 7.173000 6.350000
    endloop
  endfacet
  facet normal 0.000000 0.000000 1.000000
    outer loop
      vertex 25.400000 0.000000 6.350000
      vertex 12.700000 15.404000 6.350000
      vertex 14.875000 4.997000 6.350000
    endloop
  endfacet
  facet normal 0.000000 0.000000 1.000000
    outer loop
      vertex 12.700000 0.647000 6.350000
      vertex 14.875000 4.997000 6.350000
      vertex 12.700000 2.822000 6.350000
    endloop
  endfacet
  facet normal 0.000000 0.000000 1.000000
    outer loop
      vertex 13.347000 0.000000 6.350000
      vertex 14.875000 4.997000 6.350000
      vertex 12.700000 0.647000 6.350000
    endloop
  endfacet
  facet normal -0.000000 0.000000 1.000000
    outer loop
      vertex 25.400000 0.000000 6.350000
      vertex 14.875000 4.997000 6.350000
      vertex 13.347000 0.000000 6.350000
    endloop
  endfacet
  facet normal -0.000000 0.000000 1.000000
    outer loop
      vertex 25.400000 9.113000 6.350000
      vertex 12.700000 15.404000 6.350000
      vertex 25.400000 0.000000 6.350000
    endloop
  endfacet
  facet normal 0.000000 -0.000000 1.000000
    outer loop
      vertex 4.503000 21.360000 6.350000
      vertex 3.882000 20.505000 6.350000
      vertex 12.700000 15.404000 6.350000
    endloop
  endfacet
  facet normal 0.000000 0.000000 1.000000
    outer loop
      vertex 25.400000 25.400000 6.350000
      vertex 0.000000 23.754000 6.350000
      vertex 25.400000 16.286000 6.350000
    endloop
  endfacet
  facet normal 0.000000 0.000000 1.000000
    outer loop
      vertex 33.103000 27.575000 6.350000
      vertex 0.000000 23.754000 6.350000
      vertex 25.400000 25.400000 6.350000
    endloop
  endfacet
  facet normal 0.000000 0.000000 1.000000
    outer loop
      vertex 33.103000 27.575000 6.350000
      vertex 25.400000 25.400000 6.350000
      vertex 30.927000 25.400000 6.350000
    endloop
  endfacet
  facet normal 0.000000 -0.000000 1.000000
    outer loop
      vertex 12.700000 25.400000 6.350000
      vertex 0.000000 23.754000 6.350000
      vertex 33.103000 27.575000 6.350000
    endloop
  endfacet
  facet normal -0.000000 0.000000 1.000000
    outer loop
      vertex 37.453000 25.400000 6.350000
      vertex 33.103000 27.575000 6.350000
      vertex 35.278000 25.400000 6.350000
    endloop
  endfacet
  facet normal -0.000000 0.000000 1.000000
    outer loop
      vertex 38.100000 26.047000 6.350000
      vertex 33.103000 27.575000 6.350000
      vertex 37.453000 25.400000 6.350000
    endloop
  endfacet
  facet normal 0.000000 0.000000 1.000000
    outer loop
      vertex 38.100000 38.100000 6.350000
      vertex 33.103000 27.575000 6.350000
      vertex 38.100000 26.047000 6.350000
    endloop
  endfacet
  facet normal 0.000000 -0.000000 1.000000
    outer loop
      vertex 28.987000 38.100000 6.350000
      vertex 25.400000 34.513000 6.350000
      vertex 38.100000 38.100000 6.350000
    endloop
  endfacet
  facet normal 0.000000 0.000000 1.000000
    outer loop
      vertex 38.100000 38.100000 6.350000
      vertex 12.700000 25.400000 6.350000
      vertex 33.103000 27.575000 6.350000
    endloop
  endfacet
  facet normal 0.000000 0.000000 1.000000
    outer loop
      vertex 12.700000 25.400000 6.350000
      vertex 3.116000 25.400000 6.350000
      vertex 0.000000 23.754000 6.350000
    endloop
  endfacet
  facet normal -0.000000 0.000000 1.000000
    outer loop
      vertex 12.700000 15.404000 6.350000
      vertex 2.876000 20.832000 6.350000
      vertex 9.996000 12.700000 6.350000
    endloop
  endfacet
  facet normal -0.000000 0.000000 1.000000
    outer loop
      vertex 25.400000 16.286000 6.350000
      vertex 3.882000 22.216000 6.350000
      vertex 21.813000 12.700000 6.350000
    endloop
  endfacet
  facet normal 0.000000 0.000000 1.000000
    outer loop
      vertex 25.400000 16.286000 6.350000
      vertex 0.000000 23.754000 6.350000
      vertex 3.882000 22.216000 6.350000
    endloop
  endfacet
  facet normal -0.000000 -0.000000 1.000000
    outer loop
      vertex 21.813000 12.700000 6.350000
      vertex 4.503000 21.360000 6.350000
      vertex 25.400000 9.113000 6.350000
    endloop
  endfacet
  facet normal 0.000000 0.000000 1.000000
    outer loop
      vertex 4.503000 21.360000 6.350000
      vertex 12.700000 15.404000 6.350000
      vertex 25.400000 9.113000 6.350000
    endloop
  endfacet
  facet normal 0.000000 0.000000 1.000000
    outer loop
      vertex 12.700000 15.404000 6.350000
      vertex 3.882000 20.505000 6.350000
      vertex 2.876000 20.832000 6.350000
    endloop
  endfacet
  facet normal 0.000000 0.000000 1.000000
    outer loop
      vertex 2.876000 20.832000 6.350000
      vertex 2.876000 21.889000 6.350000
      vertex 0.000000 23.754000 6.350000
    endloop
  endfacet
  facet normal 0.000000 0.000000 1.000000
    outer loop
      vertex 2.876000 21.889000 6.350000
      vertex 3.882000 22.216000 6.350000
      vertex 0.000000 23.754000 6.350000
    endloop
  endfacet
  facet normal 0.000000 0.000000 1.000000
    outer loop
      vertex 12.700000 38.100000 6.350000
      vertex 25.400000 34.513000 6.350000
      vertex 21.813000 38.100000 6.350000
    endloop
  endfacet
  facet normal 0.000000 -0.000000 1.000000
    outer loop
      vertex 25.400000 34.513000 6.350000
      vertex 12.700000 25.400000 6.350000
      vertex 38.100000 38.100000 6.350000
    endloop
  endfacet
  facet normal 0.000000 -0.000000 1.000000
    outer loop
      vertex 12.700000 38.100000 6.350000
      vertex 12.700000 25.400000 6.350000
      vertex 25.400000 34.513000 6.350000
    endloop
  endfacet
  facet normal 0.707107 -0.707107 0.000000
    outer loop
      vertex 0.588000 14.464000 6.350000
      vertex 0.588000 14.464000 -6.350000
      vertex 3.910000 17.786000 -6.350000
    endloop
  endfacet
  facet normal 0.707107 -0.707107 0.000000
    outer loop
      vertex 3.910000 17.786000 6.350000
      vertex 0.588000 14.464000 6.350000
      vertex 3.910000 17.786000 -6.350000
    endloop
  endfacet
  facet normal -0.873054 0.487624 0.000000
    outer loop
      vertex 1.529000 13.523000 -6.350000
      vertex 1.529000 13.523000 6.350000
      vertex 3.910000 17.786000 -6.350000
    endloop
  endfacet
  facet normal -0.873054 0.487624 0.000000
    outer loop
      vertex 3.910000 17.786000 -6.350000
      vertex 1.529000 13.523000 6.350000
      vertex 3.910000 17.786000 6.350000
    endloop
  endfacet
  facet normal -0.707107 -0.707107 0.000000
    outer loop
      vertex 1.529000 13.523000 6.350000
      vertex 1.529000 13.523000 -6.350000
      vertex 2.352000 12.700000 -6.350000
    endloop
  endfacet
  facet normal -0.707107 -0.707107 0.000000
    outer loop
      vertex 2.352000 12.700000 6.350000
      vertex 1.529000 13.523000 6.350000
      vertex 2.352000 12.700000 -6.350000
    endloop
  endfacet
  facet normal 0.000000 -1.000000 0.000000
    outer loop
      vertex 2.352000 12.700000 6.350000
      vertex 2.352000 12.700000 -6.350000
      vertex 9.996000 12.700000 -6.350000
    endloop
  endfacet
  facet normal 0.000000 -1.000000 0.000000
    outer loop
      vertex 9.996000 12.700000 6.350000
      vertex 2.352000 12.700000 6.350000
      vertex 9.996000 12.700000 -6.350000
    endloop
  endfacet
  facet normal 0.707107 -0.707107 0.000000
    outer loop
      vertex 9.996000 12.700000 6.350000
      vertex 9.996000 12.700000 -6.350000
      vertex 12.700000 15.404000 -6.350000
    endloop
  endfacet
  facet normal 0.707107 -0.707107 0.000000
    outer loop
      vertex 12.700000 15.404000 6.350000
      vertex 9.996000 12.700000 6.350000
      vertex 12.700000 15.404000 -6.350000
    endloop
  endfacet
  facet normal -1.000000 -0.000000 -0.000000
    outer loop
      vertex 12.700000 7.173000 -6.350000
      vertex 12.700000 7.173000 6.350000
      vertex 12.700000 15.404000 -6.350000
    endloop
  endfacet
  facet normal -1.000000 0.000000 0.000000
    outer loop
      vertex 12.700000 15.404000 -6.350000
      vertex 12.700000 7.173000 6.350000
      vertex 12.700000 15.404000 6.350000
    endloop
  endfacet
  facet normal -0.707269 -0.706944 -0.000000
    outer loop
      vertex 12.700000 7.173000 -6.350000
      vertex 14.875000 4.997000 -6.350000
      vertex 12.700000 7.173000 6.350000
    endloop
  endfacet
  facet normal -0.707269 -0.706944 0.000000
    outer loop
      vertex 12.700000 7.173000 6.350000
      vertex 14.875000 4.997000 -6.350000
      vertex 14.875000 4.997000 6.350000
    endloop
  endfacet
  facet normal -0.707107 0.707107 0.000000
    outer loop
      vertex 12.700000 2.822000 -6.350000
      vertex 12.700000 2.822000 6.350000
      vertex 14.875000 4.997000 -6.350000
    endloop
  endfacet
  facet normal -0.707107 0.707107 0.000000
    outer loop
      vertex 14.875000 4.997000 -6.350000
      vertex 12.700000 2.822000 6.350000
      vertex 14.875000 4.997000 6.350000
    endloop
  endfacet
  facet normal -1.000000 -0.000000 -0.000000
    outer loop
      vertex 12.700000 0.647000 -6.350000
      vertex 12.700000 0.647000 6.350000
      vertex 12.700000 2.822000 -6.350000
    endloop
  endfacet
  facet normal -1.000000 0.000000 0.000000
    outer loop
      vertex 12.700000 2.822000 -6.350000
      vertex 12.700000 0.647000 6.350000
      vertex 12.700000 2.822000 6.350000
    endloop
  endfacet
  facet normal -0.707107 -0.707107 -0.000000
    outer loop
      vertex 12.700000 0.647000 -6.350000
      vertex 13.347000 0.000000 -6.350000
      vertex 12.700000 0.647000 6.350000
    endloop
  endfacet
  facet normal -0.707107 -0.707107 0.000000
    outer loop
      vertex 12.700000 0.647000 6.350000
      vertex 13.347000 0.000000 -6.350000
      vertex 13.347000 0.000000 6.350000
    endloop
  endfacet
  facet normal 0.000000 -1.000000 0.000000
    outer loop
      vertex 13.347000 0.000000 6.350000
      vertex 13.347000 0.000000 -6.350000
      vertex 25.400000 0.000000 -6.350000
    endloop
  endfacet
  facet normal 0.000000 -1.000000 0.000000
    outer loop
      vertex 25.400000 0.000000 6.350000
      vertex 13.347000 0.000000 6.350000
      vertex 25.400000 0.000000 -6.350000
    endloop
  endfacet
  facet normal 1.000000 0.000000 -0.000000
    outer loop
      vertex 25.400000 0.000000 6.350000
      vertex 25.400000 0.000000 -6.350000
      vertex 25.400000 9.113000 -6.350000
    endloop
  endfacet
  facet normal 1.000000 0.000000 0.000000
    outer loop
      vertex 25.400000 9.113000 6.350000
      vertex 25.400000 0.000000 6.350000
      vertex 25.400000 9.113000 -6.350000
    endloop
  endfacet
  facet normal 0.707107 0.707107 0.000000
    outer loop
      vertex 21.813000 12.700000 -6.350000
      vertex 21.813000 12.700000 6.350000
      vertex 25.400000 9.113000 -6.350000
    endloop
  endfacet
  facet normal 0.707107 0.707107 0.000000
    outer loop
      vertex 25.400000 9.113000 -6.350000
      vertex 21.813000 12.700000 6.350000
      vertex 25.400000 9.113000 6.350000
    endloop
  endfacet
  facet normal 0.707008 -0.707205 0.000000
    outer loop
      vertex 21.813000 12.700000 6.350000
      vertex 21.813000 12.700000 -6.350000
      vertex 25.400000 16.286000 -6.350000
    endloop
  endfacet
  facet normal 0.707008 -0.707205 0.000000
    outer loop
      vertex 25.400000 16.286000 6.350000
      vertex 21.813000 12.700000 6.350000
      vertex 25.400000 16.286000 -6.350000
    endloop
  endfacet
  facet normal 1.000000 0.000000 -0.000000
    outer loop
      vertex 25.400000 16.286000 6.350000
      vertex 25.400000 16.286000 -6.350000
      vertex 25.400000 25.400000 -6.350000
    endloop
  endfacet
  facet normal 1.000000 0.000000 0.000000
    outer loop
      vertex 25.400000 25.400000 6.350000
      vertex 25.400000 16.286000 6.350000
      vertex 25.400000 25.400000 -6.350000
    endloop
  endfacet
  facet normal 0.000000 -1.000000 0.000000
    outer loop
      vertex 25.400000 25.400000 6.350000
      vertex 25.400000 25.400000 -6.350000
      vertex 30.927000 25.400000 -6.350000
    endloop
  endfacet
  facet normal 0.000000 -1.000000 0.000000
    outer loop
      vertex 30.927000 25.400000 6.350000
      vertex 25.400000 25.400000 6.350000
      vertex 30.927000 25.400000 -6.350000
    endloop
  endfacet
  facet normal 0.706944 -0.707269 0.000000
    outer loop
      vertex 30.927000 25.400000 6.350000
      vertex 30.927000 25.400000 -6.350000
      vertex 33.103000 27.575000 -6.350000
    endloop
  endfacet
  facet normal 0.706944 -0.707269 0.000000
    outer loop
      vertex 33.103000 27.575000 6.350000
      vertex 30.927000 25.400000 6.350000
      vertex 33.103000 27.575000 -6.350000
    endloop
  endfacet
  facet normal -0.707107 -0.707107 0.000000
    outer loop
      vertex 33.103000 27.575000 6.350000
      vertex 33.103000 27.575000 -6.350000
      vertex 35.278000 25.400000 -6.350000
    endloop
  endfacet
  facet normal -0.707107 -0.707107 0.000000
    outer loop
      vertex 35.278000 25.400000 6.350000
      vertex 33.103000 27.575000 6.350000
      vertex 35.278000 25.400000 -6.350000
    endloop
  endfacet
  facet normal 0.000000 -1.000000 0.000000
    outer loop
      vertex 35.278000 25.400000 6.350000
      vertex 35.278000 25.400000 -6.350000
      vertex 37.453000 25.400000 -6.350000
    endloop
  endfacet
  facet normal 0.000000 -1.000000 0.000000
    outer loop
      vertex 37.453000 25.400000 6.350000
      vertex 35.278000 25.400000 6.350000
      vertex 37.453000 25.400000 -6.350000
    endloop
  endfacet
  facet normal 0.707107 -0.707107 0.000000
    outer loop
      vertex 37.453000 25.400000 6.350000
      vertex 37.453000 25.400000 -6.350000
      vertex 38.100000 26.047000 -6.350000
    endloop
  endfacet
  facet normal 0.707107 -0.707107 0.000000
    outer loop
      vertex 38.100000 26.047000 6.350000
      vertex 37.453000 25.400000 6.350000
      vertex 38.100000 26.047000 -6.350000
    endloop
  endfacet
  facet normal 1.000000 0.000000 -0.000000
    outer loop
      vertex 38.100000 26.047000 6.350000
      vertex 38.100000 26.047000 -6.350000
      vertex 38.100000 38.100000 -6.350000
    endloop
  endfacet
  facet normal 1.000000 0.000000 0.000000
    outer loop
      vertex 38.100000 38.100000 6.350000
      vertex 38.100000 26.047000 6.350000
      vertex 38.100000 38.100000 -6.350000
    endloop
  endfacet
  facet normal 0.000000 1.000000 0.000000
    outer loop
      vertex 28.987000 38.100000 -6.350000
      vertex 28.987000 38.100000 6.350000
      vertex 38.100000 38.100000 -6.350000
    endloop
  endfacet
  facet normal 0.000000 1.000000 0.000000
    outer loop
      vertex 38.100000 38.100000 -6.350000
      vertex 28.987000 38.100000 6.350000
      vertex 38.100000 38.100000 6.350000
    endloop
  endfacet
  facet normal -0.707107 0.707107 0.000000
    outer loop
      vertex 25.400000 34.513000 -6.350000
      vertex 25.400000 34.513000 6.350000
      vertex 28.987000 38.100000 -6.350000
    endloop
  endfacet
  facet normal -0.707107 0.707107 0.000000
    outer loop
      vertex 28.987000 38.100000 -6.350000
      vertex 25.400000 34.513000 6.350000
      vertex 28.987000 38.100000 6.350000
    endloop
  endfacet
  facet normal 0.707107 0.707107 0.000000
    outer loop
      vertex 21.813000 38.100000 -6.350000
      vertex 21.813000 38.100000 6.350000
      vertex 25.400000 34.513000 -6.350000
    endloop
  endfacet
  facet normal 0.707107 0.707107 0.000000
    outer loop
      vertex 25.400000 34.513000 -6.350000
      vertex 21.813000 38.100000 6.350000
      vertex 25.400000 34.513000 6.350000
    endloop
  endfacet
  facet normal 0.000000 1.000000 0.000000
    outer loop
      vertex 12.700000 38.100000 -6.350000
      vertex 12.700000 38.100000 6.350000
      vertex 21.813000 38.100000 -6.350000
    endloop
  endfacet
  facet normal 0.000000 1.000000 0.000000
    outer loop
      vertex 21.813000 38.100000 -6.350000
      vertex 12.700000 38.100000 6.350000
      vertex 21.813000 38.100000 6.350000
    endloop
  endfacet
  facet normal -1.000000 -0.000000 -0.000000
    outer loop
      vertex 12.700000 25.400000 -6.350000
      vertex 12.700000 25.400000 6.350000
      vertex 12.700000 38.100000 -6.350000
    endloop
  endfacet
  facet normal -1.000000 0.000000 0.000000
    outer loop
      vertex 12.700000 38.100000 -6.350000
      vertex 12.700000 25.400000 6.350000
      vertex 12.700000 38.100000 6.350000
    endloop
  endfacet
  facet normal 0.000000 1.000000 0.000000
    outer loop
      vertex 3.116000 25.400000 -6.350000
      vertex 3.116000 25.400000 6.350000
      vertex 12.700000 25.400000 -6.350000
    endloop
  endfacet
  facet normal 0.000000 1.000000 0.000000
    outer loop
      vertex 12.700000 25.400000 -6.350000
      vertex 3.116000 25.400000 6.350000
      vertex 12.700000 25.400000 6.350000
    endloop
  endfacet
  facet normal -0.467079 0.884215 0.000000
    outer loop
      vertex 0.000000 23.754000 -6.350000
      vertex 0.000000 23.754000 6.350000
      vertex 3.116000 25.400000 -6.350000
    endloop
  endfacet
  facet normal -0.467079 0.884215 0.000000
    outer loop
      vertex 3.116000 25.400000 -6.350000
      vertex 0.000000 23.754000 6.350000
      vertex 3.116000 25.400000 6.350000
    endloop
  endfacet
  facet normal 0.309129 -0.951020 0.000000
    outer loop
      vertex 2.876000 21.889000 6.350000
      vertex 2.876000 21.889000 -6.350000
      vertex 3.882000 22.216000 -6.350000
    endloop
  endfacet
  facet normal 0.309129 -0.951020 0.000000
    outer loop
      vertex 3.882000 22.216000 6.350000
      vertex 2.876000 21.889000 6.350000
      vertex 3.882000 22.216000 -6.350000
    endloop
  endfacet
  facet normal 1.000000 0.000000 -0.000000
    outer loop
      vertex 2.876000 20.832000 6.350000
      vertex 2.876000 20.832000 -6.350000
      vertex 2.876000 21.889000 -6.350000
    endloop
  endfacet
  facet normal 1.000000 0.000000 0.000000
    outer loop
      vertex 2.876000 21.889000 6.350000
      vertex 2.876000 20.832000 6.350000
      vertex 2.876000 21.889000 -6.350000
    endloop
  endfacet
  facet normal -0.809431 -0.587215 -0.000000
    outer loop
      vertex 3.882000 22.216000 -6.350000
      vertex 4.503000 21.360000 -6.350000
      vertex 3.882000 22.216000 6.350000
    endloop
  endfacet
  facet normal -0.809431 -0.587215 0.000000
    outer loop
      vertex 3.882000 22.216000 6.350000
      vertex 4.503000 21.360000 -6.350000
      vertex 4.503000 21.360000 6.350000
    endloop
  endfacet
  facet normal -0.809104 0.587665 0.000000
    outer loop
      vertex 3.882000 20.505000 -6.350000
      vertex 3.882000 20.505000 6.350000
      vertex 4.503000 21.360000 -6.350000
    endloop
  endfacet
  facet normal -0.809104 0.587665 0.000000
    outer loop
      vertex 4.503000 21.360000 -6.350000
      vertex 3.882000 20.505000 6.350000
      vertex 4.503000 21.360000 6.350000
    endloop
  endfacet
  facet normal 0.309129 0.951020 0.000000
    outer loop
      vertex 2.876000 20.832000 -6.350000
      vertex 2.876000 20.832000 6.350000
      vertex 3.882000 20.505000 -6.350000
    endloop
  endfacet
  facet normal 0.309129 0.951020 0.000000
    outer loop
      vertex 3.882000 20.505000 -6.350000
      vertex 2.876000 20.832000 6.350000
      vertex 3.882000 20.505000 6.350000
    endloop
  endfacet
endsolid
