  0
SECTION
  2
HEADER
  9
$ACADVER
  1
AC1009
  9
$DWGCODEPAGE
  3
ansi_1252
  9
$INSBASE
 10
0.0
 20
0.0
 30
0.0
  9
$EXTMIN
 10
1.000000000000000E+20
 20
1.000000000000000E+20
 30
1.000000000000000E+20
  9
$EXTMAX
 10
-1.000000000000000E+20
 20
-1.000000000000000E+20
 30
-1.000000000000000E+20
  9
$LIMMIN
 10
0.0
 20
0.0
  9
$LIMMAX
 10
12.0
 20
9.0
  9
$ORTHOMODE
 70
     0
  9
$REGENMODE
 70
     1
  9
$FILLMODE
 70
     1
  9
$QTEXTMODE
 70
     0
  9
$MIRRTEXT
 70
     1
  9
$DRAGMODE
 70
     2
  9
$LTSCALE
 40
1.0
  9
$OSMODE
 70
    37
  9
$ATTMODE
 70
     1
  9
$TEXTSIZE
 40
0.2
  9
$TRACEWID
 40
0.05
  9
$TEXTSTYLE
  7
STANDARD
  9
$CLAYER
  8
0
  9
$CELTYPE
  6
BYBLOCK
  9
$CECOLOR
 62
   256
  9
$DIMSCALE
 40
1.0
  9
$DIMASZ
 40
0.18
  9
$DIMEXO
 40
0.0625
  9
$DIMDLI
 40
0.38
  9
$DIMRND
 40
0.0
  9
$DIMDLE
 40
0.0
  9
$DIMEXE
 40
0.18
  9
$DIMTP
 40
0.0
  9
$DIMTM
 40
0.0
  9
$DIMTXT
 40
0.18
  9
$DIMCEN
 40
0.09
  9
$DIMTSZ
 40
0.0
  9
$DIMTOL
 70
     0
  9
$DIMLIM
 70
     0
  9
$DIMTIH
 70
     1
  9
$DIMTOH
 70
     1
  9
$DIMSE1
 70
     0
  9
$DIMSE2
 70
     0
  9
$DIMTAD
 70
     0
  9
$DIMZIN
 70
     0
  9
$DIMBLK
  1

  9
$DIMASO
 70
     1
  9
$DIMSHO
 70
     1
  9
$DIMPOST
  1

  9
$DIMAPOST
  1

  9
$DIMALT
 70
     0
  9
$DIMALTD
 70
     2
  9
$DIMALTF
 40
25.4
  9
$DIMLFAC
 40
1.0
  9
$DIMTOFL
 70
     0
  9
$DIMTVP
 40
0.0
  9
$DIMTIX
 70
     0
  9
$DIMSOXD
 70
     0
  9
$DIMSAH
 70
     0
  9
$DIMBLK1
  1

  9
$DIMBLK2
  1

  9
$DIMSTYLE
  2
STANDARD
  9
$DIMCLRD
 70
     0
  9
$DIMCLRE
 70
     0
  9
$DIMCLRT
 70
     0
  9
$DIMTFAC
 40
1.0
  9
$DIMGAP
 40
0.09
  9
$LUNITS
 70
     2
  9
$LUPREC
 70
     4
  9
$SKETCHINC
 40
0.1
  9
$FILLETRAD
 40
0.5
  9
$AUNITS
 70
     0
  9
$AUPREC
 70
     0
  9
$MENU
  1
.
  9
$ELEVATION
 40
0.0
  9
$PELEVATION
 40
0.0
  9
$THICKNESS
 40
0.0
  9
$LIMCHECK
 70
     0
  9
$CHAMFERA
 40
0.5
  9
$CHAMFERB
 40
0.5
  9
$SKPOLY
 70
     0
  9
$TDCREATE
 40
2455180.661923275
  9
$TDUPDATE
 40
2455180.661923287
  9
$TDINDWG
 40
0.0000000116
  9
$TDUSRTIMER
 40
0.0000000116
  9
$USRTIMER
 70
     1
  9
$ANGBASE
 50
0.0
  9
$ANGDIR
 70
     0
  9
$PDMODE
 70
     0
  9
$PDSIZE
 40
0.0
  9
$PLINEWID
 40
0.0
  9
$COORDS
 70
     1
  9
$SPLFRAME
 70
     0
  9
$SPLINETYPE
 70
     6
  9
$SPLINESEGS
 70
     8
  9
$ATTDIA
 70
     0
  9
$ATTREQ
 70
     1
  9
$HANDLING
 70
     1
  9
$HANDSEED
  5
21A
  9
$SURFTAB1
 70
     6
  9
$SURFTAB2
 70
     6
  9
$SURFTYPE
 70
     6
  9
$SURFU
 70
     6
  9
$SURFV
 70
     6
  9
$UCSNAME
  2

  9
$UCSORG
 10
0.0
 20
0.0
 30
0.0
  9
$UCSXDIR
 10
1.0
 20
0.0
 30
0.0
  9
$UCSYDIR
 10
0.0
 20
1.0
 30
0.0
  9
$PUCSNAME
  2

  9
$PUCSORG
 10
0.0
 20
0.0
 30
0.0
  9
$PUCSXDIR
 10
1.0
 20
0.0
 30
0.0
  9
$PUCSYDIR
 10
0.0
 20
1.0
 30
0.0
  9
$USERI1
 70
     0
  9
$USERI2
 70
     0
  9
$USERI3
 70
     0
  9
$USERI4
 70
     0
  9
$USERI5
 70
     0
  9
$USERR1
 40
0.0
  9
$USERR2
 40
0.0
  9
$USERR3
 40
0.0
  9
$USERR4
 40
0.0
  9
$USERR5
 40
0.0
  9
$WORLDVIEW
 70
     1
  9
$SHADEDGE
 70
     3
  9
$SHADEDIF
 70
    70
  9
$TILEMODE
 70
     1
  9
$MAXACTVP
 70
    64
  9
$PLIMCHECK
 70
     0
  9
$PEXTMIN
 10
1.000000000000000E+20
 20
1.000000000000000E+20
 30
1.000000000000000E+20
  9
$PEXTMAX
 10
-1.000000000000000E+20
 20
-1.000000000000000E+20
 30
-1.000000000000000E+20
  9
$PLIMMIN
 10
0.0
 20
0.0
  9
$PLIMMAX
 10
12.0
 20
9.0
  9
$UNITMODE
 70
     0
  9
$VISRETAIN
 70
     1
  9
$PLINEGEN
 70
     0
  9
$PSLTSCALE
 70
     1
  0
ENDSEC
  0
SECTION
  2
TABLES
  0
TABLE
  2
VPORT
 70
     1
  0
VPORT
  2
*ACTIVE
 70
     0
 10
0.0
 20
0.0
 11
1.0
 21
1.0
 12
10.42990654205607
 22
4.5
 13
0.0
 23
0.0
 14
0.5
 24
0.5
 15
0.5
 25
0.5
 16
0.0
 26
0.0
 36
1.0
 17
0.0
 27
0.0
 37
0.0
 40
9.0
 41
1.972972972850329
 42
50.0
 43
0.0
 44
0.0
 50
0.0
 51
0.0
 71
     0
 72
   100
 73
     1
 74
     3
 75
     0
 76
     0
 77
     0
 78
     0
  0
ENDTAB
  0
TABLE
  2
LTYPE
 70
    12
  0
LTYPE
  2
CONTINUOUS
 70
     0
  3
Solid line
 72
    65
 73
     0
 40
0.0
  0
LTYPE
  2
LINETYPE_1
 70
     0
  3
See CAD-STD manual for LINETYPE_1
 72
    65
 73
     0
 40
0.0
  0
LTYPE
  2
LINETYPE_2
 70
     0
  3
See CAD-STD manual for LINETYPE_2
 72
    65
 73
     0
 40
0.0
  0
LTYPE
  2
LINETYPE_3
 70
     0
  3
See CAD-STD manual for LINETYPE_3
 72
    65
 73
     2
 40
0.1562
 49
0.125
 49
-0.0312
  0
LTYPE
  2
LINETYPE_4
 70
     0
  3
See CAD-STD manual for LINETYPE_4
 72
    65
 73
     4
 40
1.0
 49
0.75
 49
-0.0625
 49
0.125
 49
-0.0625
  0
LTYPE
  2
LINETYPE_5
 70
     0
  3
See CAD-STD manual for LINETYPE_5
 72
    65
 73
     2
 40
0.3125
 49
0.25
 49
-0.0625
  0
LTYPE
  2
LINETYPE_6
 70
     0
  3
See CAD-STD manual for LINETYPE_6
 72
    65
 73
     6
 40
1.1875
 49
0.75
 49
-0.0625
 49
0.125
 49
-0.0625
 49
0.125
 49
-0.0625
  0
LTYPE
  2
LINETYPE_7
 70
     0
  3
See CAD-STD manual for LINETYPE_7
 72
    65
 73
     6
 40
1.1875
 49
0.75
 49
-0.0625
 49
0.125
 49
-0.0625
 49
0.125
 49
-0.0625
  0
LTYPE
  2
LINETYPE_8
 70
     0
  3
See CAD-STD manual for LINETYPE_8
 72
    65
 73
     2
 40
0.125
 49
0.0625
 49
-0.0625
  0
LTYPE
  2
LINETYPE_9
 70
     0
  3
See CAD-STD manual for LINETYPE_9
 72
    65
 73
     2
 40
0.0625
 49
0.0001
 49
-0.0624
  0
LTYPE
  2
LINETYPE_10
 70
     0
  3
See CAD-STD manual for LINETYPE_10
 72
    65
 73
     4
 40
0.5625
 49
0.375
 49
-0.0625
 49
0.0625
 49
-0.0625
  0
LTYPE
  2
LINETYPE_11
 70
     0
  3
See CAD-STD manual for LINETYPE_11
 72
    65
 73
     0
 40
0.0
  0
ENDTAB
  0
TABLE
  2
LAYER
 70
     2
  0
LAYER
  2
0
 70
     0
 62
     7
  6
CONTINUOUS
  0
LAYER
  2
1
 70
     0
 62
     7
  6
CONTINUOUS
  0
ENDTAB
  0
TABLE
  2
STYLE
 70
     1
  0
STYLE
  2
STANDARD
 70
     0
 40
0.0
 41
1.0
 50
0.0
 71
     0
 42
0.2
  3
txt
  4

  0
ENDTAB
  0
TABLE
  2
VIEW
 70
     0
  0
ENDTAB
  0
TABLE
  2
UCS
 70
     0
  0
ENDTAB
  0
TABLE
  2
APPID
 70
     1
  0
APPID
  2
ACAD
 70
     0
  0
ENDTAB
  0
TABLE
  2
DIMSTYLE
 70
     1
  0
DIMSTYLE
  2
STANDARD
 70
     0
  3

  4

  5

  6

  7

 40
1.0
 41
0.18
 42
0.0625
 43
0.38
 44
0.18
 45
0.0
 46
0.0
 47
0.0
 48
0.0
140
0.18
141
0.09
142
0.0
143
25.4
144
1.0
145
0.0
146
1.0
147
0.09
 71
     0
 72
     0
 73
     1
 74
     1
 75
     0
 76
     0
 77
     0
 78
     0
170
     0
171
     2
172
     0
173
     0
174
     0
175
     0
176
     0
177
     0
178
     0
  0
ENDTAB
  0
ENDSEC
  0
SECTION
  2
BLOCKS
  0
BLOCK
  8
0
  2
$MODEL_SPACE
 70
     0
 10
0.0
 20
0.0
 30
0.0
  3
$MODEL_SPACE
  1

  0
ENDBLK
  5
114
  8
0
  0
BLOCK
 67
     1
  8
0
  2
$PAPER_SPACE
 70
     0
 10
0.0
 20
0.0
 30
0.0
  3
$PAPER_SPACE
  1

  0
ENDBLK
  5
112
 67
     1
  8
0
  0
ENDSEC
  0
SECTION
  2
ENTITIES
  0
POLYLINE
  5
2C
  8
1
  6
LINETYPE_2
 66
     1
 10
0.0
 20
0.0
 30
0.0
 70
     1
  0
VERTEX
  5
13B
  8
1
  6
LINETYPE_2
 10
119.0862
 20
155.2835
 30
0.0
  0
VERTEX
  5
13C
  8
1
  6
LINETYPE_2
 10
118.402
 20
156.1868
 30
0.0
  0
VERTEX
  5
13D
  8
1
  6
LINETYPE_2
 10
117.4987
 20
156.871
 30
0.0
  0
VERTEX
  5
13E
  8
1
  6
LINETYPE_2
 10
116.1865
 20
157.1463
 30
0.0
  0
VERTEX
  5
13F
  8
1
  6
LINETYPE_2
 10
106.6615
 20
157.1463
 30
0.0
  0
VERTEX
  5
140
  8
1
  6
LINETYPE_2
 10
106.6615
 20
161.9088
 30
0.0
  0
VERTEX
  5
141
  8
1
  6
LINETYPE_2
 10
106.0097
 20
163.4963
 30
0.0
  0
VERTEX
  5
142
  8
1
  6
LINETYPE_2
 10
104.4222
 20
165.0838
 30
0.0
  0
VERTEX
  5
143
  8
1
  6
LINETYPE_2
 10
105.1867
 20
165.8776
 30
0.0
  0
VERTEX
  5
144
  8
1
  6
LINETYPE_2
 10
105.5687
 20
166.2744
 30
0.0
  0
VERTEX
  5
145
  8
1
  6
LINETYPE_2
 10
105.9509
 20
166.6713
 30
0.0
  0
VERTEX
  5
146
  8
1
  6
LINETYPE_2
 10
106.1285
 20
167.0682
 30
0.0
  0
VERTEX
  5
147
  8
1
  6
LINETYPE_2
 10
106.3063
 20
167.465
 30
0.0
  0
VERTEX
  5
148
  8
1
  6
LINETYPE_2
 10
106.6615
 20
168.2588
 30
0.0
  0
VERTEX
  5
149
  8
1
  6
LINETYPE_2
 10
106.6615
 20
169.8463
 30
0.0
  0
VERTEX
  5
14A
  8
1
  6
LINETYPE_2
 10
93.9615
 20
169.8463
 30
0.0
  0
VERTEX
  5
14B
  8
1
  6
LINETYPE_2
 10
93.9615
 20
168.4099
 30
0.0
  0
VERTEX
  5
14C
  8
1
  6
LINETYPE_2
 10
94.8972
 20
165.5115
 30
0.0
  0
VERTEX
  5
14D
  8
1
  6
LINETYPE_2
 10
93.9615
 20
164.6883
 30
0.0
  0
VERTEX
  5
14E
  8
1
  6
LINETYPE_2
 10
93.9615
 20
164.1004
 30
0.0
  0
VERTEX
  5
14F
  8
1
  6
LINETYPE_2
 10
94.7835
 20
164.0122
 30
0.0
  0
VERTEX
  5
150
  8
1
  6
LINETYPE_2
 10
96.4272
 20
163.8358
 30
0.0
  0
VERTEX
  5
151
  8
1
  6
LINETYPE_2
 10
97.2492
 20
163.7476
 30
0.0
  0
VERTEX
  5
152
  8
1
  6
LINETYPE_2
 10
96.4272
 20
163.6007
 30
0.0
  0
VERTEX
  5
153
  8
1
  6
LINETYPE_2
 10
95.6053
 20
163.4536
 30
0.0
  0
VERTEX
  5
154
  8
1
  6
LINETYPE_2
 10
94.7835
 20
163.3066
 30
0.0
  0
VERTEX
  5
155
  8
1
  6
LINETYPE_2
 10
93.9615
 20
163.1597
 30
0.0
  0
VERTEX
  5
156
  8
1
  6
LINETYPE_2
 10
93.9615
 20
162.5556
 30
0.0
  0
VERTEX
  5
157
  8
1
  6
LINETYPE_2
 10
95.282
 20
161.7619
 30
0.0
  0
VERTEX
  5
158
  8
1
  6
LINETYPE_2
 10
95.9421
 20
161.365
 30
0.0
  0
VERTEX
  5
159
  8
1
  6
LINETYPE_2
 10
96.6023
 20
160.9681
 30
0.0
  0
VERTEX
  5
15A
  8
1
  6
LINETYPE_2
 10
96.0437
 20
160.5712
 30
0.0
  0
VERTEX
  5
15B
  8
1
  6
LINETYPE_2
 10
95.4853
 20
160.1744
 30
0.0
  0
VERTEX
  5
15C
  8
1
  6
LINETYPE_2
 10
94.368
 20
159.3806
 30
0.0
  0
VERTEX
  5
15D
  8
1
  6
LINETYPE_2
 10
94.2664
 20
159.2189
 30
0.0
  0
VERTEX
  5
15E
  8
1
  6
LINETYPE_2
 10
94.1648
 20
159.0573
 30
0.0
  0
VERTEX
  5
15F
  8
1
  6
LINETYPE_2
 10
93.9615
 20
158.7338
 30
0.0
  0
VERTEX
  5
160
  8
1
  6
LINETYPE_2
 10
94.5244
 20
157.7892
 30
0.0
  0
VERTEX
  5
161
  8
1
  6
LINETYPE_2
 10
95.549
 20
157.1463
 30
0.0
  0
VERTEX
  5
162
  8
1
  6
LINETYPE_2
 10
84.4365
 20
157.1463
 30
0.0
  0
VERTEX
  5
163
  8
1
  6
LINETYPE_2
 10
83.1243
 20
156.871
 30
0.0
  0
VERTEX
  5
164
  8
1
  6
LINETYPE_2
 10
82.221
 20
156.1868
 30
0.0
  0
VERTEX
  5
165
  8
1
  6
LINETYPE_2
 10
81.5368
 20
155.2835
 30
0.0
  0
VERTEX
  5
166
  8
1
  6
LINETYPE_2
 10
81.2615
 20
153.9713
 30
0.0
  0
VERTEX
  5
167
  8
1
  6
LINETYPE_2
 10
81.2615
 20
146.0338
 30
0.0
  0
VERTEX
  5
168
  8
1
  6
LINETYPE_2
 10
81.9033
 20
144.4463
 30
0.0
  0
VERTEX
  5
169
  8
1
  6
LINETYPE_2
 10
82.849
 20
144.4463
 30
0.0
  0
VERTEX
  5
16A
  8
1
  6
LINETYPE_2
 10
84.4365
 20
147.664
 30
0.0
  0
VERTEX
  5
16B
  8
1
  6
LINETYPE_2
 10
86.4894
 20
144.4463
 30
0.0
  0
VERTEX
  5
16C
  8
1
  6
LINETYPE_2
 10
87.2537
 20
144.4463
 30
0.0
  0
VERTEX
  5
16D
  8
1
  6
LINETYPE_2
 10
89.199
 20
147.8991
 30
0.0
  0
VERTEX
  5
16E
  8
1
  6
LINETYPE_2
 10
90.7865
 20
144.4463
 30
0.0
  0
VERTEX
  5
16F
  8
1
  6
LINETYPE_2
 10
91.7811
 20
144.4463
 30
0.0
  0
VERTEX
  5
170
  8
1
  6
LINETYPE_2
 10
92.8927
 20
145.5151
 30
0.0
  0
VERTEX
  5
171
  8
1
  6
LINETYPE_2
 10
93.5098
 20
146.4855
 30
0.0
  0
VERTEX
  5
172
  8
1
  6
LINETYPE_2
 10
93.9615
 20
147.6213
 30
0.0
  0
VERTEX
  5
173
  8
1
  6
LINETYPE_2
 10
93.9615
 20
139.6838
 30
0.0
  0
VERTEX
  5
174
  8
1
  6
LINETYPE_2
 10
95.2651
 20
136.5088
 30
0.0
  0
VERTEX
  5
175
  8
1
  6
LINETYPE_2
 10
96.5586
 20
134.9213
 30
0.0
  0
VERTEX
  5
176
  8
1
  6
LINETYPE_2
 10
93.9615
 20
133.3338
 30
0.0
  0
VERTEX
  5
177
  8
1
  6
LINETYPE_2
 10
93.9615
 20
131.7463
 30
0.0
  0
VERTEX
  5
178
  8
1
  6
LINETYPE_2
 10
99.2556
 20
131.7463
 30
0.0
  0
VERTEX
  5
179
  8
1
  6
LINETYPE_2
 10
99.7766
 20
132.3223
 30
0.0
  0
VERTEX
  5
17A
  8
1
  6
LINETYPE_2
 10
99.7579
 20
133.3338
 30
0.0
  0
VERTEX
  5
17B
  8
1
  6
LINETYPE_2
 10
99.7286
 20
134.9213
 30
0.0
  0
VERTEX
  5
17C
  8
1
  6
LINETYPE_2
 10
99.7579
 20
136.5088
 30
0.0
  0
VERTEX
  5
17D
  8
1
  6
LINETYPE_2
 10
99.7873
 20
138.0963
 30
0.0
  0
VERTEX
  5
17E
  8
1
  6
LINETYPE_2
 10
100.0493
 20
139.6838
 30
0.0
  0
VERTEX
  5
17F
  8
1
  6
LINETYPE_2
 10
100.3115
 20
141.2713
 30
0.0
  0
VERTEX
  5
180
  8
1
  6
LINETYPE_2
 10
100.5737
 20
139.6838
 30
0.0
  0
VERTEX
  5
181
  8
1
  6
LINETYPE_2
 10
100.8357
 20
138.0963
 30
0.0
  0
VERTEX
  5
182
  8
1
  6
LINETYPE_2
 10
100.8651
 20
136.5088
 30
0.0
  0
VERTEX
  5
183
  8
1
  6
LINETYPE_2
 10
100.8944
 20
134.9213
 30
0.0
  0
VERTEX
  5
184
  8
1
  6
LINETYPE_2
 10
100.8651
 20
133.3338
 30
0.0
  0
VERTEX
  5
185
  8
1
  6
LINETYPE_2
 10
100.8464
 20
132.3223
 30
0.0
  0
VERTEX
  5
186
  8
1
  6
LINETYPE_2
 10
101.3674
 20
131.7463
 30
0.0
  0
VERTEX
  5
187
  8
1
  6
LINETYPE_2
 10
106.6615
 20
131.7463
 30
0.0
  0
VERTEX
  5
188
  8
1
  6
LINETYPE_2
 10
106.6615
 20
133.3338
 30
0.0
  0
VERTEX
  5
189
  8
1
  6
LINETYPE_2
 10
104.0644
 20
134.9213
 30
0.0
  0
VERTEX
  5
18A
  8
1
  6
LINETYPE_2
 10
105.3579
 20
136.5088
 30
0.0
  0
VERTEX
  5
18B
  8
1
  6
LINETYPE_2
 10
106.6615
 20
139.6838
 30
0.0
  0
VERTEX
  5
18C
  8
1
  6
LINETYPE_2
 10
106.6615
 20
147.6213
 30
0.0
  0
VERTEX
  5
18D
  8
1
  6
LINETYPE_2
 10
107.1132
 20
146.4855
 30
0.0
  0
VERTEX
  5
18E
  8
1
  6
LINETYPE_2
 10
107.7303
 20
145.5151
 30
0.0
  0
VERTEX
  5
18F
  8
1
  6
LINETYPE_2
 10
108.8419
 20
144.4463
 30
0.0
  0
VERTEX
  5
190
  8
1
  6
LINETYPE_2
 10
109.8365
 20
144.4463
 30
0.0
  0
VERTEX
  5
191
  8
1
  6
LINETYPE_2
 10
111.424
 20
147.8991
 30
0.0
  0
VERTEX
  5
192
  8
1
  6
LINETYPE_2
 10
113.3693
 20
144.4463
 30
0.0
  0
VERTEX
  5
193
  8
1
  6
LINETYPE_2
 10
114.1336
 20
144.4463
 30
0.0
  0
VERTEX
  5
194
  8
1
  6
LINETYPE_2
 10
116.1865
 20
147.664
 30
0.0
  0
VERTEX
  5
195
  8
1
  6
LINETYPE_2
 10
117.774
 20
144.4463
 30
0.0
  0
VERTEX
  5
196
  8
1
  6
LINETYPE_2
 10
118.7197
 20
144.4463
 30
0.0
  0
VERTEX
  5
197
  8
1
  6
LINETYPE_2
 10
119.3615
 20
146.0338
 30
0.0
  0
VERTEX
  5
198
  8
1
  6
LINETYPE_2
 10
119.3615
 20
153.9713
 30
0.0
  0
SEQEND
  5
199
  8
1
  6
LINETYPE_2
  0
CIRCLE
  5
8C
  8
1
  6
LINETYPE_2
 10
99.0175
 20
166.3008
 30
0.0
 40
0.6174
  0
POLYLINE
  5
8D
  8
0
  6
LINETYPE_2
 66
     1
 10
0.0
 20
0.0
 30
0.0
 70
     1
  0
VERTEX
  5
19A
  8
0
  6
LINETYPE_2
 10
38.8248
 20
24.5374
 30
0.0
  0
VERTEX
  5
19B
  8
0
  6
LINETYPE_2
 10
38.1407
 20
25.4409
 30
0.0
  0
VERTEX
  5
19C
  8
0
  6
LINETYPE_2
 10
37.2372
 20
26.125
 30
0.0
  0
VERTEX
  5
19D
  8
0
  6
LINETYPE_2
 10
35.9252
 20
26.3996
 30
0.0
  0
VERTEX
  5
19E
  8
0
  6
LINETYPE_2
 10
26.3996
 20
26.3996
 30
0.0
  0
VERTEX
  5
19F
  8
0
  6
LINETYPE_2
 10
26.3996
 20
31.1624
 30
0.0
  0
VERTEX
  5
1A0
  8
0
  6
LINETYPE_2
 10
25.748
 20
32.75
 30
0.0
  0
VERTEX
  5
1A1
  8
0
  6
LINETYPE_2
 10
24.1604
 20
34.3376
 30
0.0
  0
VERTEX
  5
1A2
  8
0
  6
LINETYPE_2
 10
24.9252
 20
35.1309
 30
0.0
  0
VERTEX
  5
1A3
  8
0
  6
LINETYPE_2
 10
25.3071
 20
35.5285
 30
0.0
  0
VERTEX
  5
1A4
  8
0
  6
LINETYPE_2
 10
25.689
 20
35.9252
 30
0.0
  0
VERTEX
  5
1A5
  8
0
  6
LINETYPE_2
 10
25.8671
 20
36.3219
 30
0.0
  0
VERTEX
  5
1A6
  8
0
  6
LINETYPE_2
 10
26.0453
 20
36.7185
 30
0.0
  0
VERTEX
  5
1A7
  8
0
  6
LINETYPE_2
 10
26.3996
 20
37.5128
 30
0.0
  0
VERTEX
  5
1A8
  8
0
  6
LINETYPE_2
 10
26.3996
 20
39.1004
 30
0.0
  0
VERTEX
  5
1A9
  8
0
  6
LINETYPE_2
 10
13.6998
 20
39.1004
 30
0.0
  0
VERTEX
  5
1AA
  8
0
  6
LINETYPE_2
 10
13.6998
 20
37.6634
 30
0.0
  0
VERTEX
  5
1AB
  8
0
  6
LINETYPE_2
 10
14.6358
 20
34.7648
 30
0.0
  0
VERTEX
  5
1AC
  8
0
  6
LINETYPE_2
 10
13.6998
 20
33.9419
 30
0.0
  0
VERTEX
  5
1AD
  8
0
  6
LINETYPE_2
 10
13.6998
 20
33.3543
 30
0.0
  0
VERTEX
  5
1AE
  8
0
  6
LINETYPE_2
 10
14.5217
 20
33.2657
 30
0.0
  0
VERTEX
  5
1AF
  8
0
  6
LINETYPE_2
 10
16.1654
 20
33.0896
 30
0.0
  0
VERTEX
  5
1B0
  8
0
  6
LINETYPE_2
 10
16.9882
 20
33.001
 30
0.0
  0
VERTEX
  5
1B1
  8
0
  6
LINETYPE_2
 10
16.1654
 20
32.8543
 30
0.0
  0
VERTEX
  5
1B2
  8
0
  6
LINETYPE_2
 10
15.3435
 20
32.7077
 30
0.0
  0
VERTEX
  5
1B3
  8
0
  6
LINETYPE_2
 10
14.5217
 20
32.56
 30
0.0
  0
VERTEX
  5
1B4
  8
0
  6
LINETYPE_2
 10
13.6998
 20
32.4134
 30
0.0
  0
VERTEX
  5
1B5
  8
0
  6
LINETYPE_2
 10
13.6998
 20
31.8091
 30
0.0
  0
VERTEX
  5
1B6
  8
0
  6
LINETYPE_2
 10
15.0207
 20
31.0157
 30
0.0
  0
VERTEX
  5
1B7
  8
0
  6
LINETYPE_2
 10
15.6801
 20
30.6191
 30
0.0
  0
VERTEX
  5
1B8
  8
0
  6
LINETYPE_2
 10
16.3406
 20
30.2215
 30
0.0
  0
VERTEX
  5
1B9
  8
0
  6
LINETYPE_2
 10
15.7825
 20
29.8248
 30
0.0
  0
VERTEX
  5
1BA
  8
0
  6
LINETYPE_2
 10
15.2234
 20
29.4281
 30
0.0
  0
VERTEX
  5
1BB
  8
0
  6
LINETYPE_2
 10
14.1063
 20
28.6339
 30
0.0
  0
VERTEX
  5
1BC
  8
0
  6
LINETYPE_2
 10
14.0049
 20
28.4724
 30
0.0
  0
VERTEX
  5
1BD
  8
0
  6
LINETYPE_2
 10
13.9035
 20
28.311
 30
0.0
  0
VERTEX
  5
1BE
  8
0
  6
LINETYPE_2
 10
13.6998
 20
27.9872
 30
0.0
  0
VERTEX
  5
1BF
  8
0
  6
LINETYPE_2
 10
14.2628
 20
27.0433
 30
0.0
  0
VERTEX
  5
1C0
  8
0
  6
LINETYPE_2
 10
15.2874
 20
26.3996
 30
0.0
  0
VERTEX
  5
1C1
  8
0
  6
LINETYPE_2
 10
4.1752
 20
26.3996
 30
0.0
  0
VERTEX
  5
1C2
  8
0
  6
LINETYPE_2
 10
2.8632
 20
26.125
 30
0.0
  0
VERTEX
  5
1C3
  8
0
  6
LINETYPE_2
 10
1.9596
 20
25.4409
 30
0.0
  0
VERTEX
  5
1C4
  8
0
  6
LINETYPE_2
 10
1.2756
 20
24.5374
 30
0.0
  0
VERTEX
  5
1C5
  8
0
  6
LINETYPE_2
 10
1.0
 20
23.2254
 30
0.0
  0
VERTEX
  5
1C6
  8
0
  6
LINETYPE_2
 10
1.0
 20
15.2874
 30
0.0
  0
VERTEX
  5
1C7
  8
0
  6
LINETYPE_2
 10
1.6417
 20
13.6998
 30
0.0
  0
VERTEX
  5
1C8
  8
0
  6
LINETYPE_2
 10
2.5876
 20
13.6998
 30
0.0
  0
VERTEX
  5
1C9
  8
0
  6
LINETYPE_2
 10
4.1752
 20
16.9173
 30
0.0
  0
VERTEX
  5
1CA
  8
0
  6
LINETYPE_2
 10
6.2283
 20
13.6998
 30
0.0
  0
VERTEX
  5
1CB
  8
0
  6
LINETYPE_2
 10
6.9921
 20
13.6998
 30
0.0
  0
VERTEX
  5
1CC
  8
0
  6
LINETYPE_2
 10
8.938
 20
17.1526
 30
0.0
  0
VERTEX
  5
1CD
  8
0
  6
LINETYPE_2
 10
10.5246
 20
13.6998
 30
0.0
  0
VERTEX
  5
1CE
  8
0
  6
LINETYPE_2
 10
11.5197
 20
13.6998
 30
0.0
  0
VERTEX
  5
1CF
  8
0
  6
LINETYPE_2
 10
12.6309
 20
14.7687
 30
0.0
  0
VERTEX
  5
1D0
  8
0
  6
LINETYPE_2
 10
13.248
 20
15.7392
 30
0.0
  0
VERTEX
  5
1D1
  8
0
  6
LINETYPE_2
 10
13.6998
 20
16.875
 30
0.0
  0
VERTEX
  5
1D2
  8
0
  6
LINETYPE_2
 10
13.6998
 20
8.938
 30
0.0
  0
VERTEX
  5
1D3
  8
0
  6
LINETYPE_2
 10
15.0039
 20
5.7628
 30
0.0
  0
VERTEX
  5
1D4
  8
0
  6
LINETYPE_2
 10
16.2972
 20
4.1752
 30
0.0
  0
VERTEX
  5
1D5
  8
0
  6
LINETYPE_2
 10
13.6998
 20
2.5876
 30
0.0
  0
VERTEX
  5
1D6
  8
0
  6
LINETYPE_2
 10
13.6998
 20
1.0
 30
0.0
  0
VERTEX
  5
1D7
  8
0
  6
LINETYPE_2
 10
18.9941
 20
1.0
 30
0.0
  0
VERTEX
  5
1D8
  8
0
  6
LINETYPE_2
 10
19.5148
 20
1.5758
 30
0.0
  0
VERTEX
  5
1D9
  8
0
  6
LINETYPE_2
 10
19.4961
 20
2.5876
 30
0.0
  0
VERTEX
  5
1DA
  8
0
  6
LINETYPE_2
 10
19.4675
 20
4.1752
 30
0.0
  0
VERTEX
  5
1DB
  8
0
  6
LINETYPE_2
 10
19.4961
 20
5.7628
 30
0.0
  0
VERTEX
  5
1DC
  8
0
  6
LINETYPE_2
 10
19.5256
 20
7.3504
 30
0.0
  0
VERTEX
  5
1DD
  8
0
  6
LINETYPE_2
 10
19.7874
 20
8.938
 30
0.0
  0
VERTEX
  5
1DE
  8
0
  6
LINETYPE_2
 10
20.0502
 20
10.5246
 30
0.0
  0
VERTEX
  5
1DF
  8
0
  6
LINETYPE_2
 10
20.312
 20
8.938
 30
0.0
  0
VERTEX
  5
1E0
  8
0
  6
LINETYPE_2
 10
20.5738
 20
7.3504
 30
0.0
  0
VERTEX
  5
1E1
  8
0
  6
LINETYPE_2
 10
20.6033
 20
5.7628
 30
0.0
  0
VERTEX
  5
1E2
  8
0
  6
LINETYPE_2
 10
20.6329
 20
4.1752
 30
0.0
  0
VERTEX
  5
1E3
  8
0
  6
LINETYPE_2
 10
20.6033
 20
2.5876
 30
0.0
  0
VERTEX
  5
1E4
  8
0
  6
LINETYPE_2
 10
20.5846
 20
1.5758
 30
0.0
  0
VERTEX
  5
1E5
  8
0
  6
LINETYPE_2
 10
21.1063
 20
1.0
 30
0.0
  0
VERTEX
  5
1E6
  8
0
  6
LINETYPE_2
 10
26.3996
 20
1.0
 30
0.0
  0
VERTEX
  5
1E7
  8
0
  6
LINETYPE_2
 10
26.3996
 20
2.5876
 30
0.0
  0
VERTEX
  5
1E8
  8
0
  6
LINETYPE_2
 10
23.8031
 20
4.1752
 30
0.0
  0
VERTEX
  5
1E9
  8
0
  6
LINETYPE_2
 10
25.0965
 20
5.7628
 30
0.0
  0
VERTEX
  5
1EA
  8
0
  6
LINETYPE_2
 10
26.3996
 20
8.938
 30
0.0
  0
VERTEX
  5
1EB
  8
0
  6
LINETYPE_2
 10
26.3996
 20
16.875
 30
0.0
  0
VERTEX
  5
1EC
  8
0
  6
LINETYPE_2
 10
26.8514
 20
15.7392
 30
0.0
  0
VERTEX
  5
1ED
  8
0
  6
LINETYPE_2
 10
27.4685
 20
14.7687
 30
0.0
  0
VERTEX
  5
1EE
  8
0
  6
LINETYPE_2
 10
28.5807
 20
13.6998
 30
0.0
  0
VERTEX
  5
1EF
  8
0
  6
LINETYPE_2
 10
29.5748
 20
13.6998
 30
0.0
  0
VERTEX
  5
1F0
  8
0
  6
LINETYPE_2
 10
31.1624
 20
17.1526
 30
0.0
  0
VERTEX
  5
1F1
  8
0
  6
LINETYPE_2
 10
33.1083
 20
13.6998
 30
0.0
  0
VERTEX
  5
1F2
  8
0
  6
LINETYPE_2
 10
33.872
 20
13.6998
 30
0.0
  0
VERTEX
  5
1F3
  8
0
  6
LINETYPE_2
 10
35.9252
 20
16.9173
 30
0.0
  0
VERTEX
  5
1F4
  8
0
  6
LINETYPE_2
 10
37.5128
 20
13.6998
 30
0.0
  0
VERTEX
  5
1F5
  8
0
  6
LINETYPE_2
 10
38.4587
 20
13.6998
 30
0.0
  0
VERTEX
  5
1F6
  8
0
  6
LINETYPE_2
 10
39.1004
 20
15.2874
 30
0.0
  0
VERTEX
  5
1F7
  8
0
  6
LINETYPE_2
 10
39.1004
 20
23.2254
 30
0.0
  0
SEQEND
  5
1F8
  8
0
  6
LINETYPE_2
  0
POLYLINE
  5
ED
  8
0
  6
LINETYPE_2
 66
     1
 10
0.0
 20
0.0
 30
0.0
 70
     1
  0
VERTEX
  5
1F9
  8
0
  6
LINETYPE_2
 10
19.373
 20
35.5541
 30
0.0
  0
VERTEX
  5
1FA
  8
0
  6
LINETYPE_2
 10
19.3612
 20
35.6752
 30
0.0
  0
VERTEX
  5
1FB
  8
0
  6
LINETYPE_2
 10
19.3268
 20
35.7904
 30
0.0
  0
VERTEX
  5
1FC
  8
0
  6
LINETYPE_2
 10
19.2697
 20
35.8976
 30
0.0
  0
VERTEX
  5
1FD
  8
0
  6
LINETYPE_2
 10
19.1929
 20
35.9911
 30
0.0
  0
VERTEX
  5
1FE
  8
0
  6
LINETYPE_2
 10
19.0994
 20
36.0679
 30
0.0
  0
VERTEX
  5
1FF
  8
0
  6
LINETYPE_2
 10
18.9921
 20
36.125
 30
0.0
  0
VERTEX
  5
200
  8
0
  6
LINETYPE_2
 10
18.877
 20
36.1604
 30
0.0
  0
VERTEX
  5
201
  8
0
  6
LINETYPE_2
 10
18.7559
 20
36.1722
 30
0.0
  0
VERTEX
  5
202
  8
0
  6
LINETYPE_2
 10
18.6358
 20
36.1604
 30
0.0
  0
VERTEX
  5
203
  8
0
  6
LINETYPE_2
 10
18.5197
 20
36.125
 30
0.0
  0
VERTEX
  5
204
  8
0
  6
LINETYPE_2
 10
18.4134
 20
36.0679
 30
0.0
  0
VERTEX
  5
205
  8
0
  6
LINETYPE_2
 10
18.3199
 20
35.9911
 30
0.0
  0
VERTEX
  5
206
  8
0
  6
LINETYPE_2
 10
18.2431
 20
35.8976
 30
0.0
  0
VERTEX
  5
207
  8
0
  6
LINETYPE_2
 10
18.186
 20
35.7904
 30
0.0
  0
VERTEX
  5
208
  8
0
  6
LINETYPE_2
 10
18.1506
 20
35.6752
 30
0.0
  0
VERTEX
  5
209
  8
0
  6
LINETYPE_2
 10
18.1388
 20
35.5541
 30
0.0
  0
VERTEX
  5
20A
  8
0
  6
LINETYPE_2
 10
18.1506
 20
35.4341
 30
0.0
  0
VERTEX
  5
20B
  8
0
  6
LINETYPE_2
 10
18.186
 20
35.3179
 30
0.0
  0
VERTEX
  5
20C
  8
0
  6
LINETYPE_2
 10
18.2421
 20
35.2116
 30
0.0
  0
VERTEX
  5
20D
  8
0
  6
LINETYPE_2
 10
18.3199
 20
35.1181
 30
0.0
  0
VERTEX
  5
20E
  8
0
  6
LINETYPE_2
 10
18.4134
 20
35.0413
 30
0.0
  0
VERTEX
  5
20F
  8
0
  6
LINETYPE_2
 10
18.5197
 20
34.9843
 30
0.0
  0
VERTEX
  5
210
  8
0
  6
LINETYPE_2
 10
18.6358
 20
34.9488
 30
0.0
  0
VERTEX
  5
211
  8
0
  6
LINETYPE_2
 10
18.7559
 20
34.937
 30
0.0
  0
VERTEX
  5
212
  8
0
  6
LINETYPE_2
 10
18.876
 20
34.9488
 30
0.0
  0
VERTEX
  5
213
  8
0
  6
LINETYPE_2
 10
18.9921
 20
34.9843
 30
0.0
  0
VERTEX
  5
214
  8
0
  6
LINETYPE_2
 10
19.0994
 20
35.0413
 30
0.0
  0
VERTEX
  5
215
  8
0
  6
LINETYPE_2
 10
19.1929
 20
35.1181
 30
0.0
  0
VERTEX
  5
216
  8
0
  6
LINETYPE_2
 10
19.2697
 20
35.2116
 30
0.0
  0
VERTEX
  5
217
  8
0
  6
LINETYPE_2
 10
19.3268
 20
35.3179
 30
0.0
  0
VERTEX
  5
218
  8
0
  6
LINETYPE_2
 10
19.3612
 20
35.4341
 30
0.0
  0
SEQEND
  5
219
  8
0
  6
LINETYPE_2
  0
ENDSEC
  0
EOF
