  0
SECTION
  2
HEADER
  9
$ACADVER
  1
AC1012
  9
$DWGCODEPAGE
  3
dos932
  9
$INSBASE
 10
0.0
 20
0.0
 30
0.0
  9
$EXTMIN
 10
120.533039
 20
88.783211
 30
1.000000E+20
  9
$EXTMAX
 10
158.866789
 20
127.116961
 30
-1.000000E+20
  9
$LIMMIN
 10
120.533039
 20
88.783211
  9
$LIMMAX
 10
158.866789
 20
127.116961
  9
$ORTHOMODE
 70
     0
  9
$REGENMODE
 70
     1
  9
$FILLMODE
 70
     1
  9
$QTEXTMODE
 70
     0
  9
$MIRRTEXT
 70
     1
  9
$DRAGMODE
 70
     2
  9
$LTSCALE
 40
1.0
  9
$OSMODE
 70
     0
  9
$ATTMODE
 70
     1
  9
$TEXTSIZE
 40
0.2
  9
$TRACEWID
 40
0.05
  9
$TEXTSTYLE
  7
STANDARD
  9
$CLAYER
  8
0
  9
$CELTYPE
  6
CONTINUOUS
  9
$CECOLOR
 62
   256
  9
$CELTSCALE
 40
1.0
  9
$DELOBJ
 70
     1
  9
$DISPSILH
 70
     0
  9
$DIMSCALE
 40
1.0
  9
$DIMASZ
 40
0.18
  9
$DIMEXO
 40
0.0625
  9
$DIMDLI
 40
0.38
  9
$DIMRND
 40
0.0
  9
$DIMDLE
 40
0.0
  9
$DIMEXE
 40
0.18
  9
$DIMTP
 40
0.0
  9
$DIMTM
 40
0.0
  9
$DIMTXT
 40
0.18
  9
$DIMCEN
 40
0.09
  9
$DIMTSZ
 40
0.0
  9
$DIMTOL
 70
     0
  9
$DIMLIM
 70
     0
  9
$DIMTIH
 70
     1
  9
$DIMTOH
 70
     1
  9
$DIMSE1
 70
     0
  9
$DIMSE2
 70
     0
  9
$DIMTAD
 70
     0
  9
$DIMZIN
 70
     0
  9
$DIMBLK
  1

  9
$DIMASO
 70
     1
  9
$DIMSHO
 70
     1
  9
$DIMPOST
  1

  9
$DIMAPOST
  1

  9
$DIMALT
 70
     0
  9
$DIMALTD
 70
     2
  9
$DIMALTF
 40
25.4
  9
$DIMLFAC
 40
1.0
  9
$DIMTOFL
 70
     0
  9
$DIMTVP
 40
0.0
  9
$DIMTIX
 70
     0
  9
$DIMSOXD
 70
     0
  9
$DIMSAH
 70
     0
  9
$DIMBLK1
  1

  9
$DIMBLK2
  1

  9
$DIMSTYLE
  2
STANDARD
  9
$DIMCLRD
 70
     0
  9
$DIMCLRE
 70
     0
  9
$DIMCLRT
 70
     0
  9
$DIMTFAC
 40
1.0
  9
$DIMGAP
 40
0.09
  9
$DIMJUST
 70
     0
  9
$DIMSD1
 70
     0
  9
$DIMSD2
 70
     0
  9
$DIMTOLJ
 70
     1
  9
$DIMTZIN
 70
     0
  9
$DIMALTZ
 70
     0
  9
$DIMALTTZ
 70
     0
  9
$DIMFIT
 70
     3
  9
$DIMUPT
 70
     0
  9
$DIMUNIT
 70
     2
  9
$DIMDEC
 70
     4
  9
$DIMTDEC
 70
     4
  9
$DIMALTU
 70
     2
  9
$DIMALTTD
 70
     2
  9
$DIMTXSTY
  7
STANDARD
  9
$DIMAUNIT
 70
     0
  9
$LUNITS
 70
     2
  9
$LUPREC
 70
     4
  9
$SKETCHINC
 40
0.1
  9
$FILLETRAD
 40
0.0
  9
$AUNITS
 70
     0
  9
$AUPREC
 70
     0
  9
$MENU
  1
acad
  9
$ELEVATION
 40
0.0
  9
$PELEVATION
 40
0.0
  9
$THICKNESS
 40
0.0
  9
$LIMCHECK
 70
     0
  9
$BLIPMODE
 70
     1
  9
$CHAMFERA
 40
0.0
  9
$CHAMFERB
 40
0.0
  9
$CHAMFERC
 40
0.0
  9
$CHAMFERD
 40
0.0
  9
$SKPOLY
 70
     0
  9
$TDCREATE
 40
0.000000000
  9
$TDUPDATE
 40
0.000000000
  9
$TDINDWG
 40
0.0000000000
  9
$TDUSRTIMER
 40
0.0000000000
  9
$USRTIMER
 70
     1
  9
$ANGBASE
 50
0.0
  9
$ANGDIR
 70
     0
  9
$PDMODE
 70
     0
  9
$PDSIZE
 40
0.0
  9
$PLINEWID
 40
0.0
  9
$COORDS
 70
     0
  9
$SPLFRAME
 70
     0
  9
$SPLINETYPE
 70
     6
  9
$SPLINESEGS
 70
     8
  9
$ATTDIA
 70
     0
  9
$ATTREQ
 70
     1
  9
$HANDLING
 70
     1
  9
$HANDSEED
  5
8B
  9
$SURFTAB1
 70
     6
  9
$SURFTAB2
 70
     6
  9
$SURFTYPE
 70
     6
  9
$SURFU
 70
     6
  9
$SURFV
 70
     6
  9
$UCSNAME
  2

  9
$UCSORG
 10
0.0
 20
0.0
 30
0.0
  9
$UCSXDIR
 10
1.0
 20
0.0
 30
0.0
  9
$UCSYDIR
 10
0.0
 20
1.0
 30
0.0
  9
$PUCSNAME
  2

  9
$PUCSORG
 10
0.0
 20
0.0
 30
0.0
  9
$PUCSXDIR
 10
1.0
 20
0.0
 30
0.0
  9
$PUCSYDIR
 10
0.0
 20
1.0
 30
0.0
  9
$USERI1
 70
     0
  9
$USERI2
 70
     0
  9
$USERI3
 70
     0
  9
$USERI4
 70
     0
  9
$USERI5
 70
     0
  9
$USERR1
 40
0.0
  9
$USERR2
 40
0.0
  9
$USERR3
 40
0.0
  9
$USERR4
 40
0.0
  9
$USERR5
 40
0.0
  9
$WORLDVIEW
 70
     1
  9
$SHADEDGE
 70
     3
  9
$SHADEDIF
 70
    70
  9
$TILEMODE
 70
     1
  9
$MAXACTVP
 70
    16
  9
$PINSBASE
 10
0.0
 20
0.0
 30
0.0
  9
$PLIMCHECK
 70
     0
  9
$PEXTMIN
 10
1.000000E+20
 20
1.000000E+20
 30
1.000000E+20
  9
$PEXTMAX
 10
-1.000000E+20
 20
-1.000000E+20
 30
-1.000000E+20
  9
$PLIMMIN
 10
0.0
 20
0.0
  9
$PLIMMAX
 10
12.0
 20
9.0
  9
$UNITMODE
 70
     0
  9
$VISRETAIN
 70
     0
  9
$PLINEGEN
 70
     1
  9
$PSLTSCALE
 70
     0
  9
$TREEDEPTH
 70
  3020
  9
$PICKSTYLE
 70
     1
  9
$CMLSTYLE
  2
STANDARD
  9
$CMLJUST
 70
     0
  9
$CMLSCALE
 40
1.0
  9
$SAVEIMAGES
 70
     0
  0
ENDSEC
  0
SECTION
  2
CLASSES
  0
CLASS
  1
LWPOLYLINE
  2
AcDbPolyline
  3
"AutoCAD"
 90
        0
280
     0
281
     1
  0
CLASS
  1
IMAGE
  2
AcDbRasterImage
  3
ISM
 90
      127
280
     0
281
     1
  0
CLASS
  1
OLE2FRAME
  2
AcDbOle2Frame
  3
""
 90
        0
280
     0
281
     1
  0
CLASS
  1
HATCH
  2
AcDbHatch
  3
"ACAD_SEDONA"
 90
        0
280
     0
281
     1
  0
CLASS
  1
DICTIONARYVAR
  2
AcDbDictionaryVar
  3
"AutoCAD"
 90
        0
280
     0
281
     0
  0
CLASS
  1
RASTERVARIABLES
  2
AcDbRasterVariables
  3
ISM
 90
        0
280
     0
281
     0
  0
CLASS
  1
IMAGEDEF
  2
AcDbRasterImageDef
  3
ISM
 90
        0
280
     0
281
     0
  0
CLASS
  1
IMAGEDEF_REACTOR
  2
AcDbRasterImageDefReactor
  3
ISM
 90
        1
280
     0
281
     0
  0
CLASS
  1
IDBUFFER
  2
AcDbIdBuffer
  3
"Acad"
 90
        0
280
     0
281
     0
  0
CLASS
  1
SPATIAL_FILTER
  2
AcDbSpatialFilter
  3
"Acad"
 90
        0
280
     0
281
     0
  0
CLASS
  1
XRECORD
  2
AcDbXrecord
  3
"<Built In>"
 90
        0
280
     0
281
     0
  0
CLASS
  1
SORTENTSTABLE
  2
AcDbSortentsTable
  3
"AutoCAD"
 90
        0
280
     0
281
     0
  0
CLASS
  1
LAYER_INDEX
  2
AcDbLayerIndex
  3
"Acad"
 90
        0
280
     0
281
     0
  0
CLASS
  1
SPATIAL_INDEX
  2
AcDbSpatialIndex
  3
"Acad"
 90
        0
280
     0
281
     0
  0
CLASS
  1
OBJECT_PTR
  2
CAseDLPNTableRecord
  3
"ASE-LPNTableRecord"
 90
        1
280
     0
281
     0
  0
CLASS
  1
LAYOUT
  2
AcDbLayout
  3
"AutoCAD 2000"
 90
        1
280
     0
281
     0
  0
CLASS
  1
PLOTSETTINGS
  2
AcDbPlotSettings
  3
"AutoCAD 2000"
 90
        1
280
     0
281
     0
  0
CLASS
  1
ACDBDICTIONARYWDFLT
  2
AcDbDictionaryWithDefault
  3
"AutoCAD 2000"
 90
        1
280
     0
281
     0
  0
CLASS
  1
ACDBPLACEHOLDER
  2
AcDbPlaceHolder
  3
"AutoCAD 2000"
 90
        1
280
     0
281
     0
  0
CLASS
  1
VBA_PROJECT
  2
AcDbVbaProject
  3
"acadvba"
 90
        1
280
     0
281
     0
  0
CLASS
  1
WIPEOUT
  2
AcDbWipeout
  3
WipeOut|AutoCAD Express Tool|expresstools@autodesk.com
 90
      127
280
     0
281
     1
  0
CLASS
  1
WIPEOUTVARIABLES
  2
AcDbWipeoutVariables
  3
WipeOut|AutoCAD Express Tool|expresstools@autodesk.com
 90
        0
280
     0
281
     0
  0
CLASS
  1
RTEXT
  2
RText
  3
RText|AutoCAD Express Tool|expresstools@autodesk.com
 90
        0
280
     0
281
     1
  0
CLASS
  1
ARCALIGNEDTEXT
  2
AcDbArcAlignedText
  3
ATEXT|AutoCAD Express Tool|expresstools@autodesk.com
 90
        0
280
     0
281
     1
  0
ENDSEC
  0
SECTION
  2
TABLES
  0
TABLE
  2
VPORT
  5
7
100
AcDbSymbolTable
 70
     1
  0
VPORT
  5
15
100
AcDbSymbolTableRecord
100
AcDbViewportTableRecord
  2
*ACTIVE
 70
     0
 10
0.0
 20
0.0
 11
1.0
 21
1.0
 12
6.591288
 22
4.579184
 13
0.0
 23
0.0
 14
1.0
 24
1.0
 15
0.0
 25
0.0
 16
0.0
 26
0.0
 36
1.0
 17
0.0
 27
0.0
 37
0.0
 40
9.158369
 41
0.688564
 42
50.0
 43
0.0
 44
0.0
 50
0.0
 51
0.0
 71
     0
 72
   100
 73
     1
 74
     1
 75
     0
 76
     0
 77
     0
 78
     0
  0
ENDTAB
  0
TABLE
  2
LTYPE
  5
4
100
AcDbSymbolTable
 70
     3
  0
LTYPE
  5
11
100
AcDbSymbolTableRecord
100
AcDbLinetypeTableRecord
  2
BYBLOCK
 70
    64
  3

 72
    65
 73
     0
 40
0.0
  0
LTYPE
  5
12
100
AcDbSymbolTableRecord
100
AcDbLinetypeTableRecord
  2
BYLAYER
 70
    64
  3

 72
    65
 73
     0
 40
0.0
  0
LTYPE
  5
13
100
AcDbSymbolTableRecord
100
AcDbLinetypeTableRecord
  2
CONTINUOUS
 70
    64
  3
Solid line
 72
    65
 73
     0
 40
0.0
  0
ENDTAB
  0
TABLE
  2
LAYER
  5
2
100
AcDbSymbolTable
 70
     3
  0
LAYER
  5
14
100
AcDbSymbolTableRecord
100
AcDbLayerTableRecord
  2
0
 70
     0
 62
     7
  6
CONTINUOUS
  0
LAYER
  5
21
100
AcDbSymbolTableRecord
100
AcDbLayerTableRecord
  2
0
 70
     0
 62
     1
  6
CONTINUOUS
  0
LAYER
  5
22
100
AcDbSymbolTableRecord
100
AcDbLayerTableRecord
  2
2
 70
     0
 62
   160
  6
CONTINUOUS
  0
ENDTAB
  0
TABLE
  2
STYLE
  5
3
100
AcDbSymbolTable
 70
     5
  0
STYLE
  5
17
100
AcDbSymbolTableRecord
100
AcDbTextStyleTableRecord
  2
STANDARD
 70
     0
 40
0.0
 41
1.0
 50
0.0
 71
     0
 42
0.0
  3
txt
  4

  0
STYLE
  5
1D
100
AcDbSymbolTableRecord
100
AcDbTextStyleTableRecord
  2
STD
 70
     0
 40
0.0
 41
1.0
 50
0.0
 71
     0
 42
0.0
  3
txt
  4

  0
STYLE
  5
1E
100
AcDbSymbolTableRecord
100
AcDbTextStyleTableRecord
  2
TATESTD
 70
     4
 40
0.0
 41
1.0
 50
0.0
 71
     0
 42
0.0
  3
txt
  4

  0
STYLE
  5
1F
100
AcDbSymbolTableRecord
100
AcDbTextStyleTableRecord
  2
KANJISTD
 70
     0
 40
0.0
 41
1.0
 50
0.0
 71
     0
 42
0.0
  3
txt
  4
extfont
  0
STYLE
  5
20
100
AcDbSymbolTableRecord
100
AcDbTextStyleTableRecord
  2
KANJITATE
 70
     4
 40
0.0
 41
1.0
 50
0.0
 71
     0
 42
0.0
  3
txt
  4
extfont
  0
ENDTAB
  0
TABLE
  2
VIEW
  5
5
100
AcDbSymbolTable
 70
     0
  0
ENDTAB
  0
TABLE
  2
UCS
  5
6
100
AcDbSymbolTable
 70
     0
  0
ENDTAB
  0
TABLE
  2
APPID
  5
8
100
AcDbSymbolTable
 70
     1
  0
APPID
  5
16
100
AcDbSymbolTableRecord
100
AcDbRegAppTableRecord
  2
ACAD
 70
     0
  0
ENDTAB
  0
TABLE
  2
DIMSTYLE
  5
9
100
AcDbSymbolTable
 70
     1
  0
DIMSTYLE
105
18
100
AcDbSymbolTableRecord
100
AcDbDimStyleTableRecord
  2
STANDARD
 70
     0
  3

  4

  5

  6

  7

 40
1.0
 41
0.18
 42
0.0625
 43
0.38
 44
0.18
 45
0.0
 46
0.0
 47
0.0
 48
0.0
 71
     0
 72
     0
 73
     1
 74
     1
 75
     0
 76
     0
 77
     0
 78
     0
140
0.18
141
0.09
142
0.0
143
25.4
144
1.0
145
0.0
146
1.0
147
0.09
170
     0
171
     2
172
     0
173
     0
174
     0
175
     0
176
     0
177
     0
178
     0
270
     2
271
     4
272
     4
273
     2
274
     2
275
     0
280
     0
281
     0
282
     0
283
     1
284
     0
285
     0
286
     0
287
     0
288
     0
340
17
  0
ENDTAB
  0
TABLE
  2
BLOCK_RECORD
  5
1
100
AcDbSymbolTable
 70
     0
  0
BLOCK_RECORD
  5
A
100
AcDbSymbolTableRecord
100
AcDbBlockTableRecord
  2
*MODEL_SPACE
  0
BLOCK_RECORD
  5
B
100
AcDbSymbolTableRecord
100
AcDbBlockTableRecord
  2
*PAPER_SPACE
  0
ENDTAB
  0
ENDSEC
  0
SECTION
  2
BLOCKS
  0
BLOCK
  5
D
100
AcDbEntity
  8
0
100
AcDbBlockBegin
  2
*MODEL_SPACE
 70
     0
 10
0.0
 20
0.0
 30
0.0
  3
*MODEL_SPACE
  1

  0
ENDBLK
  5
E
100
AcDbEntity
  8
0
100
AcDbBlockEnd
  0
BLOCK
  5
F
100
AcDbEntity
 67
     1
  8
0
100
AcDbBlockBegin
  2
*PAPER_SPACE
 70
     0
 10
0.0
 20
0.0
 30
0.0
  3
*PAPER_SPACE
  1

  0
ENDBLK
  5
10
100
AcDbEntity
 67
     1
  8
0
100
AcDbBlockEnd
  0
ENDSEC
  0
SECTION
  2
ENTITIES
  0
LINE
  5
88
100
AcDbEntity
  8
2
 62
     4
100
AcDbLine
 10
158.466813
 20
112.435514
 30
0.0
 11
157.782962
 21
113.338646
 31
0.0
  0
LINE
  5
87
100
AcDbEntity
  8
2
 62
     4
100
AcDbLine
 10
157.782962
 20
113.338646
 30
0.0
 11
156.880002
 21
114.022325
 31
0.0
  0
LINE
  5
86
100
AcDbEntity
  8
2
 62
     4
100
AcDbLine
 10
156.880002
 20
114.022325
 30
0.0
 11
155.56811
 21
114.297416
 31
0.0
  0
LINE
  5
85
100
AcDbEntity
  8
2
 62
     4
100
AcDbLine
 10
155.56811
 20
114.297416
 30
0.0
 11
146.047244
 21
114.297416
 31
0.0
  0
LINE
  5
84
100
AcDbEntity
  8
2
 62
     4
100
AcDbLine
 10
146.047244
 20
114.297416
 30
0.0
 11
146.047244
 21
119.057849
 31
0.0
  0
LINE
  5
83
100
AcDbEntity
  8
2
 62
     4
100
AcDbLine
 10
146.047244
 20
119.057849
 30
0.0
 11
145.395776
 21
120.64466
 31
0.0
  0
LINE
  5
82
100
AcDbEntity
  8
2
 62
     4
100
AcDbLine
 10
145.395776
 20
120.64466
 30
0.0
 11
143.808621
 21
122.231471
 31
0.0
  0
LINE
  5
81
100
AcDbEntity
  8
2
 62
     4
100
AcDbLine
 10
143.808621
 20
122.231471
 30
0.0
 11
144.572743
 21
123.024877
 31
0.0
  0
LINE
  5
80
100
AcDbEntity
  8
2
 62
     4
100
AcDbLine
 10
144.572743
 20
123.024877
 30
0.0
 11
144.954804
 21
123.421579
 31
0.0
  0
LINE
  5
7F
100
AcDbEntity
  8
2
 62
     4
100
AcDbLine
 10
144.954804
 20
123.421579
 30
0.0
 11
145.336865
 21
123.818282
 31
0.0
  0
LINE
  5
7E
100
AcDbEntity
  8
2
 62
     4
100
AcDbLine
 10
145.336865
 20
123.818282
 30
0.0
 11
145.514288
 21
124.214985
 31
0.0
  0
LINE
  5
7D
100
AcDbEntity
  8
2
 62
     4
100
AcDbLine
 10
145.514288
 20
124.214985
 30
0.0
 11
145.692055
 21
124.611688
 31
0.0
  0
LINE
  5
7C
100
AcDbEntity
  8
2
 62
     4
100
AcDbLine
 10
145.692055
 20
124.611688
 30
0.0
 11
146.047244
 21
125.405093
 31
0.0
  0
LINE
  5
7B
100
AcDbEntity
  8
2
 62
     4
100
AcDbLine
 10
146.047244
 20
125.405093
 30
0.0
 11
146.047244
 21
126.991904
 31
0.0
  0
LINE
  5
7A
100
AcDbEntity
  8
2
 62
     4
100
AcDbLine
 10
146.047244
 20
126.991904
 30
0.0
 11
133.352584
 21
126.991904
 31
0.0
  0
LINE
  5
79
100
AcDbEntity
  8
2
 62
     4
100
AcDbLine
 10
133.352584
 20
126.991904
 30
0.0
 11
133.352584
 21
125.555988
 31
0.0
  0
LINE
  5
78
100
AcDbEntity
  8
2
 62
     4
100
AcDbLine
 10
133.352584
 20
125.555988
 30
0.0
 11
134.287755
 21
122.658835
 31
0.0
  0
LINE
  5
77
100
AcDbEntity
  8
2
 62
     4
100
AcDbLine
 10
134.287755
 20
122.658835
 30
0.0
 11
133.352584
 21
121.836146
 31
0.0
  0
LINE
  5
76
100
AcDbEntity
  8
2
 62
     4
100
AcDbLine
 10
133.352584
 20
121.836146
 30
0.0
 11
133.352584
 21
121.248413
 31
0.0
  0
LINE
  5
75
100
AcDbEntity
  8
2
 62
     4
100
AcDbLine
 10
133.352584
 20
121.248413
 30
0.0
 11
134.174239
 21
121.160219
 31
0.0
  0
LINE
  5
74
100
AcDbEntity
  8
2
 62
     4
100
AcDbLine
 10
134.174239
 20
121.160219
 30
0.0
 11
135.817205
 21
120.98383
 31
0.0
  0
LINE
  5
73
100
AcDbEntity
  8
2
 62
     4
100
AcDbLine
 10
135.817205
 20
120.98383
 30
0.0
 11
136.63886
 21
120.895808
 31
0.0
  0
LINE
  5
72
100
AcDbEntity
  8
2
 62
     4
100
AcDbLine
 10
136.63886
 20
120.895808
 30
0.0
 11
135.817205
 21
120.748702
 31
0.0
  0
LINE
  5
71
100
AcDbEntity
  8
2
 62
     4
100
AcDbLine
 10
135.817205
 20
120.748702
 30
0.0
 11
134.99555
 21
120.601596
 31
0.0
  0
LINE
  5
70
100
AcDbEntity
  8
2
 62
     4
100
AcDbLine
 10
134.99555
 20
120.601596
 30
0.0
 11
134.173895
 21
120.454663
 31
0.0
  0
LINE
  5
6F
100
AcDbEntity
  8
2
 62
     4
100
AcDbLine
 10
134.173895
 20
120.454663
 30
0.0
 11
133.352239
 21
120.307558
 31
0.0
  0
LINE
  5
6E
100
AcDbEntity
  8
2
 62
     4
100
AcDbLine
 10
133.352239
 20
120.307558
 30
0.0
 11
133.352239
 21
119.703805
 31
0.0
  0
LINE
  5
6D
100
AcDbEntity
  8
2
 62
     4
100
AcDbLine
 10
133.352239
 20
119.703805
 30
0.0
 11
134.672055
 21
118.910399
 31
0.0
  0
LINE
  5
6C
100
AcDbEntity
  8
2
 62
     4
100
AcDbLine
 10
134.672055
 20
118.910399
 30
0.0
 11
135.331963
 21
118.513696
 31
0.0
  0
LINE
  5
6B
100
AcDbEntity
  8
2
 62
     4
100
AcDbLine
 10
135.331963
 20
118.513696
 30
0.0
 11
135.992044
 21
118.116994
 31
0.0
  0
LINE
  5
6A
100
AcDbEntity
  8
2
 62
     4
100
AcDbLine
 10
135.992044
 20
118.116994
 30
0.0
 11
135.433938
 21
117.720291
 31
0.0
  0
LINE
  5
69
100
AcDbEntity
  8
2
 62
     4
100
AcDbLine
 10
135.433938
 20
117.720291
 30
0.0
 11
134.875661
 21
117.323588
 31
0.0
  0
LINE
  5
68
100
AcDbEntity
  8
2
 62
     4
100
AcDbLine
 10
134.875661
 20
117.323588
 30
0.0
 11
133.758933
 21
116.530183
 31
0.0
  0
LINE
  5
67
100
AcDbEntity
  8
2
 62
     4
100
AcDbLine
 10
133.758933
 20
116.530183
 30
0.0
 11
133.657303
 21
116.368608
 31
0.0
  0
LINE
  5
66
100
AcDbEntity
  8
2
 62
     4
100
AcDbLine
 10
133.657303
 20
116.368608
 30
0.0
 11
133.555844
 21
116.207205
 31
0.0
  0
LINE
  5
65
100
AcDbEntity
  8
2
 62
     4
100
AcDbLine
 10
133.555844
 20
116.207205
 30
0.0
 11
133.352584
 21
115.884227
 31
0.0
  0
LINE
  5
64
100
AcDbEntity
  8
2
 62
     4
100
AcDbLine
 10
133.352584
 20
115.884227
 30
0.0
 11
133.91534
 21
114.939926
 31
0.0
  0
LINE
  5
63
100
AcDbEntity
  8
2
 62
     4
100
AcDbLine
 10
133.91534
 20
114.939926
 30
0.0
 11
134.939395
 21
114.297416
 31
0.0
  0
LINE
  5
62
100
AcDbEntity
  8
2
 62
     4
100
AcDbLine
 10
134.939395
 20
114.297416
 30
0.0
 11
123.831718
 21
114.297416
 31
0.0
  0
LINE
  5
61
100
AcDbEntity
  8
2
 62
     4
100
AcDbLine
 10
123.831718
 20
114.297416
 30
0.0
 11
122.519826
 21
114.022325
 31
0.0
  0
LINE
  5
60
100
AcDbEntity
  8
2
 62
     4
100
AcDbLine
 10
122.519826
 20
114.022325
 30
0.0
 11
121.617211
 21
113.338302
 31
0.0
  0
LINE
  5
5F
100
AcDbEntity
  8
2
 62
     4
100
AcDbLine
 10
121.617211
 20
113.338302
 30
0.0
 11
120.933187
 21
112.435514
 31
0.0
  0
LINE
  5
5E
100
AcDbEntity
  8
2
 62
     4
100
AcDbLine
 10
120.933187
 20
112.435514
 30
0.0
 11
120.658096
 21
111.123622
 31
0.0
  0
LINE
  5
5D
100
AcDbEntity
  8
2
 62
     4
100
AcDbLine
 10
120.658096
 20
111.123622
 30
0.0
 11
120.658096
 21
103.189567
 31
0.0
  0
LINE
  5
5C
100
AcDbEntity
  8
2
 62
     4
100
AcDbLine
 10
120.658096
 20
103.189567
 30
0.0
 11
121.2994
 21
101.602756
 31
0.0
  0
LINE
  5
5B
100
AcDbEntity
  8
2
 62
     4
100
AcDbLine
 10
121.2994
 20
101.602756
 30
0.0
 11
122.244907
 21
101.602756
 31
0.0
  0
LINE
  5
5A
100
AcDbEntity
  8
2
 62
     4
100
AcDbLine
 10
122.244907
 20
101.602756
 30
0.0
 11
123.831718
 21
104.819097
 31
0.0
  0
LINE
  5
59
100
AcDbEntity
  8
2
 62
     4
100
AcDbLine
 10
123.831718
 20
104.819097
 30
0.0
 11
125.883617
 21
101.602756
 31
0.0
  0
LINE
  5
58
100
AcDbEntity
  8
2
 62
     4
100
AcDbLine
 10
125.883617
 20
101.602756
 30
0.0
 11
126.647739
 21
101.602756
 31
0.0
  0
LINE
  5
57
100
AcDbEntity
  8
2
 62
     4
100
AcDbLine
 10
126.647739
 20
101.602756
 30
0.0
 11
128.592151
 21
105.054397
 31
0.0
  0
LINE
  5
56
100
AcDbEntity
  8
2
 62
     4
100
AcDbLine
 10
128.592151
 20
105.054397
 30
0.0
 11
130.178962
 21
101.602756
 31
0.0
  0
LINE
  5
55
100
AcDbEntity
  8
2
 62
     4
100
AcDbLine
 10
130.178962
 20
101.602756
 30
0.0
 11
131.173044
 21
101.602756
 31
0.0
  0
LINE
  5
54
100
AcDbEntity
  8
2
 62
     4
100
AcDbLine
 10
131.173044
 20
101.602756
 30
0.0
 11
132.284087
 21
102.671425
 31
0.0
  0
LINE
  5
53
100
AcDbEntity
  8
2
 62
     4
100
AcDbLine
 10
132.284087
 20
102.671425
 30
0.0
 11
132.901276
 21
103.640875
 31
0.0
  0
LINE
  5
52
100
AcDbEntity
  8
2
 62
     4
100
AcDbLine
 10
132.901276
 20
103.640875
 30
0.0
 11
133.352584
 21
104.776378
 31
0.0
  0
LINE
  5
51
100
AcDbEntity
  8
2
 62
     4
100
AcDbLine
 10
133.352584
 20
104.776378
 30
0.0
 11
133.352584
 21
96.842323
 31
0.0
  0
LINE
  5
50
100
AcDbEntity
  8
2
 62
     4
100
AcDbLine
 10
133.352584
 20
96.842323
 30
0.0
 11
134.655519
 21
93.668701
 31
0.0
  0
LINE
  5
4F
100
AcDbEntity
  8
2
 62
     4
100
AcDbLine
 10
134.655519
 20
93.668701
 30
0.0
 11
135.948636
 21
92.08189
 31
0.0
  0
LINE
  5
4E
100
AcDbEntity
  8
2
 62
     4
100
AcDbLine
 10
135.948636
 20
92.08189
 30
0.0
 11
133.352584
 21
90.495079
 31
0.0
  0
LINE
  5
4D
100
AcDbEntity
  8
2
 62
     4
100
AcDbLine
 10
133.352584
 20
90.495079
 30
0.0
 11
133.352584
 21
88.908268
 31
0.0
  0
LINE
  5
4C
100
AcDbEntity
  8
2
 62
     4
100
AcDbLine
 10
133.352584
 20
88.908268
 30
0.0
 11
138.644595
 21
88.908268
 31
0.0
  0
LINE
  5
4B
100
AcDbEntity
  8
2
 62
     4
100
AcDbLine
 10
138.644595
 20
88.908268
 30
0.0
 11
139.165321
 21
89.483944
 31
0.0
  0
LINE
  5
4A
100
AcDbEntity
  8
2
 62
     4
100
AcDbLine
 10
139.165321
 20
89.483944
 30
0.0
 11
139.146718
 21
90.495079
 31
0.0
  0
LINE
  5
49
100
AcDbEntity
  8
2
 62
     4
100
AcDbLine
 10
139.146718
 20
90.495079
 30
0.0
 11
139.117434
 21
92.08189
 31
0.0
  0
LINE
  5
48
100
AcDbEntity
  8
2
 62
     4
100
AcDbLine
 10
139.117434
 20
92.08189
 30
0.0
 11
139.146718
 21
93.668701
 31
0.0
  0
LINE
  5
47
100
AcDbEntity
  8
2
 62
     4
100
AcDbLine
 10
139.146718
 20
93.668701
 30
0.0
 11
139.175829
 21
95.255512
 31
0.0
  0
LINE
  5
46
100
AcDbEntity
  8
2
 62
     4
100
AcDbLine
 10
139.175829
 20
95.255512
 30
0.0
 11
139.438
 21
96.842323
 31
0.0
  0
LINE
  5
45
100
AcDbEntity
  8
2
 62
     4
100
AcDbLine
 10
139.438
 20
96.842323
 30
0.0
 11
139.7
 21
98.429134
 31
0.0
  0
LINE
  5
44
100
AcDbEntity
  8
2
 62
     4
100
AcDbLine
 10
139.7
 20
98.429134
 30
0.0
 11
139.961827
 21
96.842323
 31
0.0
  0
LINE
  5
43
100
AcDbEntity
  8
2
 62
     4
100
AcDbLine
 10
139.961827
 20
96.842323
 30
0.0
 11
140.223999
 21
95.255512
 31
0.0
  0
LINE
  5
42
100
AcDbEntity
  8
2
 62
     4
100
AcDbLine
 10
140.223999
 20
95.255512
 30
0.0
 11
140.253282
 21
93.668701
 31
0.0
  0
LINE
  5
41
100
AcDbEntity
  8
2
 62
     4
100
AcDbLine
 10
140.253282
 20
93.668701
 30
0.0
 11
140.282566
 21
92.08189
 31
0.0
  0
LINE
  5
40
100
AcDbEntity
  8
2
 62
     4
100
AcDbLine
 10
140.282566
 20
92.08189
 30
0.0
 11
140.253282
 21
90.495079
 31
0.0
  0
LINE
  5
3F
100
AcDbEntity
  8
2
 62
     4
100
AcDbLine
 10
140.253282
 20
90.495079
 30
0.0
 11
140.234679
 21
89.483944
 31
0.0
  0
LINE
  5
3E
100
AcDbEntity
  8
2
 62
     4
100
AcDbLine
 10
140.234679
 20
89.483944
 30
0.0
 11
140.755233
 21
88.908268
 31
0.0
  0
LINE
  5
3D
100
AcDbEntity
  8
2
 62
     4
100
AcDbLine
 10
140.755233
 20
88.908268
 30
0.0
 11
146.047244
 21
88.908268
 31
0.0
  0
LINE
  5
3C
100
AcDbEntity
  8
2
 62
     4
100
AcDbLine
 10
146.047244
 20
88.908268
 30
0.0
 11
146.047244
 21
90.495079
 31
0.0
  0
LINE
  5
3B
100
AcDbEntity
  8
2
 62
     4
100
AcDbLine
 10
146.047244
 20
90.495079
 30
0.0
 11
143.451364
 21
92.08189
 31
0.0
  0
LINE
  5
3A
100
AcDbEntity
  8
2
 62
     4
100
AcDbLine
 10
143.451364
 20
92.08189
 30
0.0
 11
144.744309
 21
93.668701
 31
0.0
  0
LINE
  5
39
100
AcDbEntity
  8
2
 62
     4
100
AcDbLine
 10
144.744309
 20
93.668701
 30
0.0
 11
146.047244
 21
96.842323
 31
0.0
  0
LINE
  5
38
100
AcDbEntity
  8
2
 62
     4
100
AcDbLine
 10
146.047244
 20
96.842323
 30
0.0
 11
146.047244
 21
104.776378
 31
0.0
  0
LINE
  5
37
100
AcDbEntity
  8
2
 62
     4
100
AcDbLine
 10
146.047244
 20
104.776378
 30
0.0
 11
146.498551
 21
103.640875
 31
0.0
  0
LINE
  5
36
100
AcDbEntity
  8
2
 62
     4
100
AcDbLine
 10
146.498551
 20
103.640875
 30
0.0
 11
147.115568
 21
102.671425
 31
0.0
  0
LINE
  5
35
100
AcDbEntity
  8
2
 62
     4
100
AcDbLine
 10
147.115568
 20
102.671425
 30
0.0
 11
148.226956
 21
101.602756
 31
0.0
  0
LINE
  5
34
100
AcDbEntity
  8
2
 62
     4
100
AcDbLine
 10
148.226956
 20
101.602756
 30
0.0
 11
149.220866
 21
101.602756
 31
0.0
  0
LINE
  5
33
100
AcDbEntity
  8
2
 62
     4
100
AcDbLine
 10
149.220866
 20
101.602756
 30
0.0
 11
150.807677
 21
105.054397
 31
0.0
  0
LINE
  5
32
100
AcDbEntity
  8
2
 62
     4
100
AcDbLine
 10
150.807677
 20
105.054397
 30
0.0
 11
152.752089
 21
101.602756
 31
0.0
  0
LINE
  5
31
100
AcDbEntity
  8
2
 62
     4
100
AcDbLine
 10
152.752089
 20
101.602756
 30
0.0
 11
153.516211
 21
101.602756
 31
0.0
  0
LINE
  5
30
100
AcDbEntity
  8
2
 62
     4
100
AcDbLine
 10
153.516211
 20
101.602756
 30
0.0
 11
155.56811
 21
104.819097
 31
0.0
  0
LINE
  5
2F
100
AcDbEntity
  8
2
 62
     4
100
AcDbLine
 10
155.56811
 20
104.819097
 30
0.0
 11
157.154921
 21
101.602756
 31
0.0
  0
LINE
  5
2E
100
AcDbEntity
  8
2
 62
     4
100
AcDbLine
 10
157.154921
 20
101.602756
 30
0.0
 11
158.1006
 21
101.602756
 31
0.0
  0
LINE
  5
2D
100
AcDbEntity
  8
2
 62
     4
100
AcDbLine
 10
158.1006
 20
101.602756
 30
0.0
 11
158.741732
 21
103.189567
 31
0.0
  0
LINE
  5
2C
100
AcDbEntity
  8
2
 62
     4
100
AcDbLine
 10
158.741732
 20
103.189567
 30
0.0
 11
158.741732
 21
111.123622
 31
0.0
  0
LINE
  5
2B
100
AcDbEntity
  8
2
 62
     4
100
AcDbLine
 10
158.741732
 20
111.123622
 30
0.0
 11
158.466813
 21
112.435514
 31
0.0
  0
LINE
  5
2A
100
AcDbEntity
  8
2
 62
     4
100
AcDbLine
 10
139.459705
 20
122.365141
 30
0.0
 11
138.795146
 21
122.0587
 31
0.0
  0
LINE
  5
29
100
AcDbEntity
  8
2
 62
     4
100
AcDbLine
 10
138.795146
 20
122.0587
 30
0.0
 11
138.108538
 21
122.312259
 31
0.0
  0
LINE
  5
28
100
AcDbEntity
  8
2
 62
     4
100
AcDbLine
 10
138.108538
 20
122.312259
 30
0.0
 11
137.802097
 21
122.97699
 31
0.0
  0
LINE
  5
27
100
AcDbEntity
  8
2
 62
     4
100
AcDbLine
 10
137.802097
 20
122.97699
 30
0.0
 11
138.055656
 21
123.663942
 31
0.0
  0
LINE
  5
26
100
AcDbEntity
  8
2
 62
     4
100
AcDbLine
 10
138.055656
 20
123.663942
 30
0.0
 11
138.720387
 21
123.970383
 31
0.0
  0
LINE
  5
25
100
AcDbEntity
  8
2
 62
     4
100
AcDbLine
 10
138.720387
 20
123.970383
 30
0.0
 11
139.407339
 21
123.716824
 31
0.0
  0
LINE
  5
24
100
AcDbEntity
  8
2
 62
     4
100
AcDbLine
 10
139.407339
 20
123.716824
 30
0.0
 11
139.713608
 21
123.052093
 31
0.0
  0
LINE
  5
23
100
AcDbEntity
  8
2
 62
     4
100
AcDbLine
 10
139.713608
 20
123.052093
 30
0.0
 11
139.459705
 21
122.365141
 31
0.0
  0
ENDSEC
  0
SECTION
  2
OBJECTS
  0
DICTIONARY
  5
19
100
AcDbDictionary
  3
ACAD_GROUP
350
1A
  3
ACAD_MLINESTYLE
350
1B
  0
DICTIONARY
  5
1A
102
{ACAD_REACTORS
330
19
102
}
100
AcDbDictionary
  0
DICTIONARY
  5
1B
102
{ACAD_REACTORS
330
19
102
}
100
AcDbDictionary
  3
STANDARD
350
1C
  0
MLINESTYLE
  5
1C
102
{ACAD_REACTORS
330
1B
102
}
100
AcDbMlineStyle
  2
STANDARD
 70
     0
  3

 62
     0
 51
90.0
 52
90.0
 71
     2
 49
0.5
 62
   256
  6
BYLAYER
 49
-0.5
 62
   256
  6
BYLAYER
  0
ENDSEC
  0
EOF
