  0
SECTION
  2
HEADER
  9
$ACADVER
  1
AC1012
  9
$DWGCODEPAGE
  3
dos932
  9
$INSBASE
 10
0.0
 20
0.0
 30
0.0
  9
$EXTMIN
 10
12.574943
 20
25.274943
 30
1.000000E+20
  9
$EXTMAX
 10
63.625057
 20
50.925057
 30
-1.000000E+20
  9
$LIMMIN
 10
12.574943
 20
25.274943
  9
$LIMMAX
 10
63.625057
 20
50.925057
  9
$ORTHOMODE
 70
     0
  9
$REGENMODE
 70
     1
  9
$FILLMODE
 70
     1
  9
$QTEXTMODE
 70
     0
  9
$MIRRTEXT
 70
     1
  9
$DRAGMODE
 70
     2
  9
$LTSCALE
 40
1.0
  9
$OSMODE
 70
     0
  9
$ATTMODE
 70
     1
  9
$TEXTSIZE
 40
0.2
  9
$TRACEWID
 40
0.05
  9
$TEXTSTYLE
  7
STANDARD
  9
$CLAYER
  8
0
  9
$CELTYPE
  6
CONTINUOUS
  9
$CECOLOR
 62
   256
  9
$CELTSCALE
 40
1.0
  9
$DELOBJ
 70
     1
  9
$DISPSILH
 70
     0
  9
$DIMSCALE
 40
1.0
  9
$DIMASZ
 40
0.18
  9
$DIMEXO
 40
0.0625
  9
$DIMDLI
 40
0.38
  9
$DIMRND
 40
0.0
  9
$DIMDLE
 40
0.0
  9
$DIMEXE
 40
0.18
  9
$DIMTP
 40
0.0
  9
$DIMTM
 40
0.0
  9
$DIMTXT
 40
0.18
  9
$DIMCEN
 40
0.09
  9
$DIMTSZ
 40
0.0
  9
$DIMTOL
 70
     0
  9
$DIMLIM
 70
     0
  9
$DIMTIH
 70
     1
  9
$DIMTOH
 70
     1
  9
$DIMSE1
 70
     0
  9
$DIMSE2
 70
     0
  9
$DIMTAD
 70
     0
  9
$DIMZIN
 70
     0
  9
$DIMBLK
  1

  9
$DIMASO
 70
     1
  9
$DIMSHO
 70
     1
  9
$DIMPOST
  1

  9
$DIMAPOST
  1

  9
$DIMALT
 70
     0
  9
$DIMALTD
 70
     2
  9
$DIMALTF
 40
25.4
  9
$DIMLFAC
 40
1.0
  9
$DIMTOFL
 70
     0
  9
$DIMTVP
 40
0.0
  9
$DIMTIX
 70
     0
  9
$DIMSOXD
 70
     0
  9
$DIMSAH
 70
     0
  9
$DIMBLK1
  1

  9
$DIMBLK2
  1

  9
$DIMSTYLE
  2
STANDARD
  9
$DIMCLRD
 70
     0
  9
$DIMCLRE
 70
     0
  9
$DIMCLRT
 70
     0
  9
$DIMTFAC
 40
1.0
  9
$DIMGAP
 40
0.09
  9
$DIMJUST
 70
     0
  9
$DIMSD1
 70
     0
  9
$DIMSD2
 70
     0
  9
$DIMTOLJ
 70
     1
  9
$DIMTZIN
 70
     0
  9
$DIMALTZ
 70
     0
  9
$DIMALTTZ
 70
     0
  9
$DIMFIT
 70
     3
  9
$DIMUPT
 70
     0
  9
$DIMUNIT
 70
     2
  9
$DIMDEC
 70
     4
  9
$DIMTDEC
 70
     4
  9
$DIMALTU
 70
     2
  9
$DIMALTTD
 70
     2
  9
$DIMTXSTY
  7
STANDARD
  9
$DIMAUNIT
 70
     0
  9
$LUNITS
 70
     2
  9
$LUPREC
 70
     4
  9
$SKETCHINC
 40
0.1
  9
$FILLETRAD
 40
0.0
  9
$AUNITS
 70
     0
  9
$AUPREC
 70
     0
  9
$MENU
  1
acad
  9
$ELEVATION
 40
0.0
  9
$PELEVATION
 40
0.0
  9
$THICKNESS
 40
0.0
  9
$LIMCHECK
 70
     0
  9
$BLIPMODE
 70
     1
  9
$CHAMFERA
 40
0.0
  9
$CHAMFERB
 40
0.0
  9
$CHAMFERC
 40
0.0
  9
$CHAMFERD
 40
0.0
  9
$SKPOLY
 70
     0
  9
$TDCREATE
 40
0.000000000
  9
$TDUPDATE
 40
0.000000000
  9
$TDINDWG
 40
0.0000000000
  9
$TDUSRTIMER
 40
0.0000000000
  9
$USRTIMER
 70
     1
  9
$ANGBASE
 50
0.0
  9
$ANGDIR
 70
     0
  9
$PDMODE
 70
     0
  9
$PDSIZE
 40
0.0
  9
$PLINEWID
 40
0.0
  9
$COORDS
 70
     0
  9
$SPLFRAME
 70
     0
  9
$SPLINETYPE
 70
     6
  9
$SPLINESEGS
 70
     8
  9
$ATTDIA
 70
     0
  9
$ATTREQ
 70
     1
  9
$HANDLING
 70
     1
  9
$HANDSEED
  5
6E
  9
$SURFTAB1
 70
     6
  9
$SURFTAB2
 70
     6
  9
$SURFTYPE
 70
     6
  9
$SURFU
 70
     6
  9
$SURFV
 70
     6
  9
$UCSNAME
  2

  9
$UCSORG
 10
0.0
 20
0.0
 30
0.0
  9
$UCSXDIR
 10
1.0
 20
0.0
 30
0.0
  9
$UCSYDIR
 10
0.0
 20
1.0
 30
0.0
  9
$PUCSNAME
  2

  9
$PUCSORG
 10
0.0
 20
0.0
 30
0.0
  9
$PUCSXDIR
 10
1.0
 20
0.0
 30
0.0
  9
$PUCSYDIR
 10
0.0
 20
1.0
 30
0.0
  9
$USERI1
 70
     0
  9
$USERI2
 70
     0
  9
$USERI3
 70
     0
  9
$USERI4
 70
     0
  9
$USERI5
 70
     0
  9
$USERR1
 40
0.0
  9
$USERR2
 40
0.0
  9
$USERR3
 40
0.0
  9
$USERR4
 40
0.0
  9
$USERR5
 40
0.0
  9
$WORLDVIEW
 70
     1
  9
$SHADEDGE
 70
     3
  9
$SHADEDIF
 70
    70
  9
$TILEMODE
 70
     1
  9
$MAXACTVP
 70
    16
  9
$PINSBASE
 10
0.0
 20
0.0
 30
0.0
  9
$PLIMCHECK
 70
     0
  9
$PEXTMIN
 10
1.000000E+20
 20
1.000000E+20
 30
1.000000E+20
  9
$PEXTMAX
 10
-1.000000E+20
 20
-1.000000E+20
 30
-1.000000E+20
  9
$PLIMMIN
 10
0.0
 20
0.0
  9
$PLIMMAX
 10
12.0
 20
9.0
  9
$UNITMODE
 70
     0
  9
$VISRETAIN
 70
     0
  9
$PLINEGEN
 70
     1
  9
$PSLTSCALE
 70
     0
  9
$TREEDEPTH
 70
  3020
  9
$PICKSTYLE
 70
     1
  9
$CMLSTYLE
  2
STANDARD
  9
$CMLJUST
 70
     0
  9
$CMLSCALE
 40
1.0
  9
$SAVEIMAGES
 70
     0
  0
ENDSEC
  0
SECTION
  2
CLASSES
  0
CLASS
  1
LWPOLYLINE
  2
AcDbPolyline
  3
"AutoCAD"
 90
        0
280
     0
281
     1
  0
CLASS
  1
IMAGE
  2
AcDbRasterImage
  3
ISM
 90
      127
280
     0
281
     1
  0
CLASS
  1
OLE2FRAME
  2
AcDbOle2Frame
  3
""
 90
        0
280
     0
281
     1
  0
CLASS
  1
HATCH
  2
AcDbHatch
  3
"ACAD_SEDONA"
 90
        0
280
     0
281
     1
  0
CLASS
  1
DICTIONARYVAR
  2
AcDbDictionaryVar
  3
"AutoCAD"
 90
        0
280
     0
281
     0
  0
CLASS
  1
RASTERVARIABLES
  2
AcDbRasterVariables
  3
ISM
 90
        0
280
     0
281
     0
  0
CLASS
  1
IMAGEDEF
  2
AcDbRasterImageDef
  3
ISM
 90
        0
280
     0
281
     0
  0
CLASS
  1
IMAGEDEF_REACTOR
  2
AcDbRasterImageDefReactor
  3
ISM
 90
        1
280
     0
281
     0
  0
CLASS
  1
IDBUFFER
  2
AcDbIdBuffer
  3
"Acad"
 90
        0
280
     0
281
     0
  0
CLASS
  1
SPATIAL_FILTER
  2
AcDbSpatialFilter
  3
"Acad"
 90
        0
280
     0
281
     0
  0
CLASS
  1
XRECORD
  2
AcDbXrecord
  3
"<Built In>"
 90
        0
280
     0
281
     0
  0
CLASS
  1
SORTENTSTABLE
  2
AcDbSortentsTable
  3
"AutoCAD"
 90
        0
280
     0
281
     0
  0
CLASS
  1
LAYER_INDEX
  2
AcDbLayerIndex
  3
"Acad"
 90
        0
280
     0
281
     0
  0
CLASS
  1
SPATIAL_INDEX
  2
AcDbSpatialIndex
  3
"Acad"
 90
        0
280
     0
281
     0
  0
CLASS
  1
OBJECT_PTR
  2
CAseDLPNTableRecord
  3
"ASE-LPNTableRecord"
 90
        1
280
     0
281
     0
  0
CLASS
  1
LAYOUT
  2
AcDbLayout
  3
"AutoCAD 2000"
 90
        1
280
     0
281
     0
  0
CLASS
  1
PLOTSETTINGS
  2
AcDbPlotSettings
  3
"AutoCAD 2000"
 90
        1
280
     0
281
     0
  0
CLASS
  1
ACDBDICTIONARYWDFLT
  2
AcDbDictionaryWithDefault
  3
"AutoCAD 2000"
 90
        1
280
     0
281
     0
  0
CLASS
  1
ACDBPLACEHOLDER
  2
AcDbPlaceHolder
  3
"AutoCAD 2000"
 90
        1
280
     0
281
     0
  0
CLASS
  1
VBA_PROJECT
  2
AcDbVbaProject
  3
"acadvba"
 90
        1
280
     0
281
     0
  0
CLASS
  1
WIPEOUT
  2
AcDbWipeout
  3
WipeOut|AutoCAD Express Tool|expresstools@autodesk.com
 90
      127
280
     0
281
     1
  0
CLASS
  1
WIPEOUTVARIABLES
  2
AcDbWipeoutVariables
  3
WipeOut|AutoCAD Express Tool|expresstools@autodesk.com
 90
        0
280
     0
281
     0
  0
CLASS
  1
RTEXT
  2
RText
  3
RText|AutoCAD Express Tool|expresstools@autodesk.com
 90
        0
280
     0
281
     1
  0
CLASS
  1
ARCALIGNEDTEXT
  2
AcDbArcAlignedText
  3
ATEXT|AutoCAD Express Tool|expresstools@autodesk.com
 90
        0
280
     0
281
     1
  0
ENDSEC
  0
SECTION
  2
TABLES
  0
TABLE
  2
VPORT
  5
7
100
AcDbSymbolTable
 70
     1
  0
VPORT
  5
15
100
AcDbSymbolTableRecord
100
AcDbViewportTableRecord
  2
*ACTIVE
 70
     0
 10
0.0
 20
0.0
 11
1.0
 21
1.0
 12
6.591288
 22
4.579184
 13
0.0
 23
0.0
 14
1.0
 24
1.0
 15
0.0
 25
0.0
 16
0.0
 26
0.0
 36
1.0
 17
0.0
 27
0.0
 37
0.0
 40
9.158369
 41
0.688564
 42
50.0
 43
0.0
 44
0.0
 50
0.0
 51
0.0
 71
     0
 72
   100
 73
     1
 74
     1
 75
     0
 76
     0
 77
     0
 78
     0
  0
ENDTAB
  0
TABLE
  2
LTYPE
  5
4
100
AcDbSymbolTable
 70
     3
  0
LTYPE
  5
11
100
AcDbSymbolTableRecord
100
AcDbLinetypeTableRecord
  2
BYBLOCK
 70
    64
  3

 72
    65
 73
     0
 40
0.0
  0
LTYPE
  5
12
100
AcDbSymbolTableRecord
100
AcDbLinetypeTableRecord
  2
BYLAYER
 70
    64
  3

 72
    65
 73
     0
 40
0.0
  0
LTYPE
  5
13
100
AcDbSymbolTableRecord
100
AcDbLinetypeTableRecord
  2
CONTINUOUS
 70
    64
  3
Solid line
 72
    65
 73
     0
 40
0.0
  0
ENDTAB
  0
TABLE
  2
LAYER
  5
2
100
AcDbSymbolTable
 70
     3
  0
LAYER
  5
14
100
AcDbSymbolTableRecord
100
AcDbLayerTableRecord
  2
0
 70
     0
 62
     7
  6
CONTINUOUS
  0
LAYER
  5
21
100
AcDbSymbolTableRecord
100
AcDbLayerTableRecord
  2
0
 70
     0
 62
     1
  6
CONTINUOUS
  0
LAYER
  5
22
100
AcDbSymbolTableRecord
100
AcDbLayerTableRecord
  2
LAYER_1
 70
     0
 62
   160
  6
CONTINUOUS
  0
ENDTAB
  0
TABLE
  2
STYLE
  5
3
100
AcDbSymbolTable
 70
     5
  0
STYLE
  5
17
100
AcDbSymbolTableRecord
100
AcDbTextStyleTableRecord
  2
STANDARD
 70
     0
 40
0.0
 41
1.0
 50
0.0
 71
     0
 42
0.0
  3
txt
  4

  0
STYLE
  5
1D
100
AcDbSymbolTableRecord
100
AcDbTextStyleTableRecord
  2
STD
 70
     0
 40
0.0
 41
1.0
 50
0.0
 71
     0
 42
0.0
  3
txt
  4

  0
STYLE
  5
1E
100
AcDbSymbolTableRecord
100
AcDbTextStyleTableRecord
  2
TATESTD
 70
     4
 40
0.0
 41
1.0
 50
0.0
 71
     0
 42
0.0
  3
txt
  4

  0
STYLE
  5
1F
100
AcDbSymbolTableRecord
100
AcDbTextStyleTableRecord
  2
KANJISTD
 70
     0
 40
0.0
 41
1.0
 50
0.0
 71
     0
 42
0.0
  3
txt
  4
extfont
  0
STYLE
  5
20
100
AcDbSymbolTableRecord
100
AcDbTextStyleTableRecord
  2
KANJITATE
 70
     4
 40
0.0
 41
1.0
 50
0.0
 71
     0
 42
0.0
  3
txt
  4
extfont
  0
ENDTAB
  0
TABLE
  2
VIEW
  5
5
100
AcDbSymbolTable
 70
     0
  0
ENDTAB
  0
TABLE
  2
UCS
  5
6
100
AcDbSymbolTable
 70
     0
  0
ENDTAB
  0
TABLE
  2
APPID
  5
8
100
AcDbSymbolTable
 70
     1
  0
APPID
  5
16
100
AcDbSymbolTableRecord
100
AcDbRegAppTableRecord
  2
ACAD
 70
     0
  0
ENDTAB
  0
TABLE
  2
DIMSTYLE
  5
9
100
AcDbSymbolTable
 70
     1
  0
DIMSTYLE
105
18
100
AcDbSymbolTableRecord
100
AcDbDimStyleTableRecord
  2
STANDARD
 70
     0
  3

  4

  5

  6

  7

 40
1.0
 41
0.18
 42
0.0625
 43
0.38
 44
0.18
 45
0.0
 46
0.0
 47
0.0
 48
0.0
 71
     0
 72
     0
 73
     1
 74
     1
 75
     0
 76
     0
 77
     0
 78
     0
140
0.18
141
0.09
142
0.0
143
25.4
144
1.0
145
0.0
146
1.0
147
0.09
170
     0
171
     2
172
     0
173
     0
174
     0
175
     0
176
     0
177
     0
178
     0
270
     2
271
     4
272
     4
273
     2
274
     2
275
     0
280
     0
281
     0
282
     0
283
     1
284
     0
285
     0
286
     0
287
     0
288
     0
340
17
  0
ENDTAB
  0
TABLE
  2
BLOCK_RECORD
  5
1
100
AcDbSymbolTable
 70
     3
  0
BLOCK_RECORD
  5
A
100
AcDbSymbolTableRecord
100
AcDbBlockTableRecord
  2
*MODEL_SPACE
  0
BLOCK_RECORD
  5
B
100
AcDbSymbolTableRecord
100
AcDbBlockTableRecord
  2
*PAPER_SPACE
  0
BLOCK_RECORD
  5
2B
100
AcDbSymbolTableRecord
100
AcDbBlockTableRecord
  2
AI9-BLK1
  0
BLOCK_RECORD
  5
33
100
AcDbSymbolTableRecord
100
AcDbBlockTableRecord
  2
AI9-BLK2
  0
BLOCK_RECORD
  5
3B
100
AcDbSymbolTableRecord
100
AcDbBlockTableRecord
  2
AI9-BLK3
  0
ENDTAB
  0
ENDSEC
  0
SECTION
  2
BLOCKS
  0
BLOCK
  5
D
100
AcDbEntity
  8
0
100
AcDbBlockBegin
  2
*MODEL_SPACE
 70
     0
 10
0.0
 20
0.0
 30
0.0
  3
*MODEL_SPACE
  1

  0
ENDBLK
  5
E
100
AcDbEntity
  8
0
100
AcDbBlockEnd
  0
BLOCK
  5
F
100
AcDbEntity
 67
     1
  8
0
100
AcDbBlockBegin
  2
*PAPER_SPACE
 70
     0
 10
0.0
 20
0.0
 30
0.0
  3
*PAPER_SPACE
  1

  0
ENDBLK
  5
10
100
AcDbEntity
 67
     1
  8
0
100
AcDbBlockEnd
  0
BLOCK
  5
2D
100
AcDbEntity
  8
LAYER_1
 62
     7
100
AcDbBlockBegin
  2
AI9-BLK1
 70
     0
 10
0.0
 20
0.0
 30
0.0
  3
AI9-BLK1
  1

  0
LINE
  5
31
100
AcDbEntity
  8
LAYER_1
 62
     7
100
AcDbLine
 10
-0.396875
 20
0.396875
 30
0.0
 11
-0.396875
 21
-0.396875
 31
0.0
  0
LINE
  5
30
100
AcDbEntity
  8
LAYER_1
 62
     7
100
AcDbLine
 10
-0.396875
 20
0.396875
 30
0.0
 11
0.396875
 21
0.396875
 31
0.0
  0
LINE
  5
2F
100
AcDbEntity
  8
LAYER_1
 62
     7
100
AcDbLine
 10
0.396875
 20
-0.396875
 30
0.0
 11
0.396875
 21
0.396875
 31
0.0
  0
LINE
  5
2E
100
AcDbEntity
  8
LAYER_1
 62
     7
100
AcDbLine
 10
0.396875
 20
-0.396875
 30
0.0
 11
-0.396875
 21
-0.396875
 31
0.0
  0
ENDBLK
  5
32
100
AcDbEntity
  8
LAYER_1
100
AcDbBlockEnd
  0
BLOCK
  5
35
100
AcDbEntity
  8
LAYER_1
 62
     7
100
AcDbBlockBegin
  2
AI9-BLK2
 70
     0
 10
0.0
 20
0.0
 30
0.0
  3
AI9-BLK2
  1

  0
LINE
  5
39
100
AcDbEntity
  8
LAYER_1
 62
     7
100
AcDbLine
 10
0.397909
 20
0.442178
 30
0.0
 11
0.397909
 21
-0.353639
 31
0.0
  0
LINE
  5
38
100
AcDbEntity
  8
LAYER_1
 62
     7
100
AcDbLine
 10
0.397909
 20
0.442178
 30
0.0
 11
-0.397909
 21
0.442178
 31
0.0
  0
LINE
  5
37
100
AcDbEntity
  8
LAYER_1
 62
     7
100
AcDbLine
 10
-0.397909
 20
0.442178
 30
0.0
 11
-0.397909
 21
-0.442178
 31
0.0
  0
LINE
  5
36
100
AcDbEntity
  8
LAYER_1
 62
     7
100
AcDbLine
 10
-0.397909
 20
-0.442178
 30
0.0
 11
0.397909
 21
-0.353639
 31
0.0
  0
ENDBLK
  5
3A
100
AcDbEntity
  8
LAYER_1
100
AcDbBlockEnd
  0
BLOCK
  5
3D
100
AcDbEntity
  8
LAYER_1
 62
     7
100
AcDbBlockBegin
  2
AI9-BLK3
 70
     0
 10
0.0
 20
0.0
 30
0.0
  3
AI9-BLK3
  1

  0
LINE
  5
41
100
AcDbEntity
  8
LAYER_1
 62
     7
100
AcDbLine
 10
-0.397909
 20
0.442178
 30
0.0
 11
-0.397909
 21
-0.353639
 31
0.0
  0
LINE
  5
40
100
AcDbEntity
  8
LAYER_1
 62
     7
100
AcDbLine
 10
-0.397909
 20
0.442178
 30
0.0
 11
0.397909
 21
0.442178
 31
0.0
  0
LINE
  5
3F
100
AcDbEntity
  8
LAYER_1
 62
     7
100
AcDbLine
 10
0.397909
 20
0.442178
 30
0.0
 11
0.397909
 21
-0.442178
 31
0.0
  0
LINE
  5
3E
100
AcDbEntity
  8
LAYER_1
 62
     7
100
AcDbLine
 10
0.397909
 20
-0.442178
 30
0.0
 11
-0.397909
 21
-0.353639
 31
0.0
  0
ENDBLK
  5
42
100
AcDbEntity
  8
LAYER_1
100
AcDbBlockEnd
  0
ENDSEC
  0
SECTION
  2
ENTITIES
  0
LINE
  5
6B
100
AcDbEntity
  8
LAYER_1
 62
     7
100
AcDbLine
 10
21.863609
 20
50.8
 30
0.0
 11
25.352113
 21
47.311152
 31
0.0
  0
LINE
  5
6A
100
AcDbEntity
  8
LAYER_1
 62
     7
100
AcDbLine
 10
25.352113
 20
47.311152
 30
0.0
 11
25.352113
 21
40.334489
 31
0.0
  0
LINE
  5
69
100
AcDbEntity
  8
LAYER_1
 62
     7
100
AcDbLine
 10
12.7
 20
41.572312
 30
0.0
 11
16.188676
 21
38.083464
 31
0.0
  0
LINE
  5
68
100
AcDbEntity
  8
LAYER_1
 62
     7
100
AcDbLine
 10
16.188676
 20
38.083464
 30
0.0
 11
12.7
 21
34.59496
 31
0.0
  0
LINE
  5
67
100
AcDbEntity
  8
LAYER_1
 62
     7
100
AcDbLine
 10
16.188504
 20
50.8
 30
0.0
 11
12.7
 21
47.311496
 31
0.0
  0
LINE
  5
66
100
AcDbEntity
  8
LAYER_1
 62
     7
100
AcDbLine
 10
16.188504
 20
50.8
 30
0.0
 11
21.863609
 21
50.8
 31
0.0
  0
LINE
  5
65
100
AcDbEntity
  8
LAYER_1
 62
     7
100
AcDbLine
 10
12.7
 20
47.311496
 30
0.0
 11
12.7
 21
41.572312
 31
0.0
  0
LINE
  5
64
100
AcDbEntity
  8
LAYER_1
 62
     7
100
AcDbLine
 10
12.7
 20
34.59496
 30
0.0
 11
12.7
 21
25.4
 31
0.0
  0
LINE
  5
63
100
AcDbEntity
  8
LAYER_1
 62
     7
100
AcDbLine
 10
12.7
 20
25.4
 30
0.0
 11
30.707859
 21
25.4
 31
0.0
  0
LINE
  5
62
100
AcDbEntity
  8
LAYER_1
 62
     7
100
AcDbLine
 10
30.707859
 20
25.4
 30
0.0
 11
30.707859
 21
26.984055
 31
0.0
  0
LINE
  5
61
100
AcDbEntity
  8
LAYER_1
 62
     7
100
AcDbLine
 10
30.707859
 20
26.984055
 30
0.0
 11
28.585852
 21
29.106234
 31
0.0
  0
LINE
  5
60
100
AcDbEntity
  8
LAYER_1
 62
     7
100
AcDbLine
 10
28.585852
 20
29.106234
 30
0.0
 11
24.341667
 21
29.106234
 31
0.0
  0
LINE
  5
5F
100
AcDbEntity
  8
LAYER_1
 62
     7
100
AcDbLine
 10
29.027858
 20
30.697523
 30
0.0
 11
32.564593
 21
27.160788
 31
0.0
  0
LINE
  5
5E
100
AcDbEntity
  8
LAYER_1
 62
     7
100
AcDbLine
 10
32.564593
 20
27.160788
 30
0.0
 11
32.564593
 21
25.4
 31
0.0
  0
LINE
  5
5D
100
AcDbEntity
  8
LAYER_1
 62
     7
100
AcDbLine
 10
48.943438
 20
25.4
 30
0.0
 11
48.943438
 21
26.984055
 31
0.0
  0
LINE
  5
5C
100
AcDbEntity
  8
LAYER_1
 62
     7
100
AcDbLine
 10
48.943438
 20
26.984055
 30
0.0
 11
46.821604
 21
29.106234
 31
0.0
  0
LINE
  5
5B
100
AcDbEntity
  8
LAYER_1
 62
     7
100
AcDbLine
 10
47.263265
 20
30.697523
 30
0.0
 11
51.317798
 21
26.642646
 31
0.0
  0
LINE
  5
5A
100
AcDbEntity
  8
LAYER_1
 62
     7
100
AcDbLine
 10
52.560788
 20
25.4
 30
0.0
 11
61.3854
 21
25.4
 31
0.0
  0
LINE
  5
59
100
AcDbEntity
  8
LAYER_1
 62
     7
100
AcDbLine
 10
62.796512
 20
26.811111
 30
0.0
 11
63.5
 21
27.5146
 31
0.0
  0
LINE
  5
58
100
AcDbEntity
  8
LAYER_1
 62
     7
100
AcDbLine
 10
63.5
 20
31.761024
 30
0.0
 11
63.5
 21
38.1
 31
0.0
  0
LINE
  5
57
100
AcDbEntity
  8
LAYER_1
 62
     7
100
AcDbLine
 10
59.172271
 20
38.1
 30
0.0
 11
60.854856
 21
36.621365
 31
0.0
  0
LINE
  5
56
100
AcDbEntity
  8
LAYER_1
 62
     7
100
AcDbLine
 10
60.854856
 20
36.621365
 30
0.0
 11
63.5
 21
38.1
 31
0.0
  0
LINE
  5
55
100
AcDbEntity
  8
LAYER_1
 62
     7
100
AcDbLine
 10
53.445144
 20
36.621365
 30
0.0
 11
50.8
 21
38.1
 31
0.0
  0
LINE
  5
54
100
AcDbEntity
  8
LAYER_1
 62
     7
100
AcDbLine
 10
50.8
 20
38.1
 30
0.0
 11
50.8
 21
35.206464
 31
0.0
  0
LINE
  5
53
100
AcDbEntity
  8
LAYER_1
 62
     7
100
AcDbLine
 10
50.8
 20
35.206464
 30
0.0
 11
44.055881
 21
38.1
 31
0.0
  0
LINE
  5
52
100
AcDbEntity
  8
LAYER_1
 62
     7
100
AcDbLine
 10
20.746365
 20
38.1
 30
0.0
 11
44.055881
 21
38.1
 31
0.0
  0
LINE
  5
51
100
AcDbEntity
  8
LAYER_1
 62
     7
100
AcDbLine
 10
24.341667
 20
29.106234
 30
0.0
 11
29.027858
 21
30.697523
 31
0.0
  0
LINE
  5
50
100
AcDbEntity
  8
LAYER_1
 62
     7
100
AcDbLine
 10
42.467003
 20
29.106234
 30
0.0
 11
47.263265
 21
30.697523
 31
0.0
  0
LINE
  5
4F
100
AcDbEntity
  8
LAYER_1
 62
     7
100
AcDbLine
 10
25.352113
 20
40.334489
 30
0.0
 11
19.926432
 21
40.334489
 31
0.0
  0
LINE
  5
4E
100
AcDbEntity
  8
LAYER_1
 62
     7
100
AcDbLine
 10
19.926432
 20
40.334489
 30
0.0
 11
19.926432
 21
46.170136
 31
0.0
  0
LINE
  5
4D
100
AcDbEntity
  8
LAYER_1
 62
     7
100
AcDbLine
 10
19.926432
 20
46.170136
 30
0.0
 11
17.981331
 21
44.225035
 31
0.0
  0
LINE
  5
4C
100
AcDbEntity
  8
LAYER_1
 62
     7
100
AcDbLine
 10
17.981331
 20
44.225035
 30
0.0
 11
17.981331
 21
40.511567
 31
0.0
  0
LINE
  5
4B
100
AcDbEntity
  8
LAYER_1
 62
     7
100
AcDbLine
 10
17.981331
 20
40.511567
 30
0.0
 11
20.746365
 21
38.1
 31
0.0
  0
LINE
  5
4A
100
AcDbEntity
  8
LAYER_1
 62
     7
100
AcDbLine
 10
62.177428
 20
26.192027
 30
0.0
 11
61.341303
 21
27.558697
 31
0.0
  0
LINE
  5
49
100
AcDbEntity
  8
LAYER_1
 62
     7
100
AcDbLine
 10
61.341303
 20
27.558697
 30
0.0
 11
62.796512
 21
26.811111
 31
0.0
  0
LINE
  5
48
100
AcDbEntity
  8
LAYER_1
 62
     7
100
AcDbLine
 10
63.5
 20
29.548928
 30
0.0
 11
62.171571
 21
29.014939
 31
0.0
  0
LINE
  5
47
100
AcDbEntity
  8
LAYER_1
 62
     7
100
AcDbLine
 10
62.171571
 20
29.014939
 30
0.0
 11
63.5
 21
28.576378
 31
0.0
  0
LINE
  5
46
100
AcDbEntity
  8
LAYER_1
 62
     7
100
AcDbLine
 10
63.5
 20
31.761024
 30
0.0
 11
62.171571
 21
30.699935
 31
0.0
  0
LINE
  5
45
100
AcDbEntity
  8
LAYER_1
 62
     7
100
AcDbLine
 10
62.171571
 20
30.699935
 30
0.0
 11
63.5
 21
30.699935
 31
0.0
  0
LINE
  5
44
100
AcDbEntity
  8
LAYER_1
 62
     7
100
AcDbLine
 10
51.936882
 20
26.023562
 30
0.0
 11
52.812625
 21
27.42985
 31
0.0
  0
LINE
  5
43
100
AcDbEntity
  8
LAYER_1
 62
     7
100
AcDbLine
 10
52.812625
 20
27.42985
 30
0.0
 11
51.317798
 21
26.642646
 31
0.0
  0
INSERT
  5
3C
100
AcDbEntity
  8
LAYER_1
 62
     7
100
AcDbBlockReference
  2
AI9-BLK3
 10
54.444911
 20
32.775088
 30
0.0
  0
INSERT
  5
34
100
AcDbEntity
  8
LAYER_1
 62
     7
100
AcDbBlockReference
  2
AI9-BLK2
 10
59.572936
 20
32.775088
 30
0.0
  0
INSERT
  5
2C
100
AcDbEntity
  8
LAYER_1
 62
     7
100
AcDbBlockReference
  2
AI9-BLK1
 10
57.008751
 20
30.814657
 30
0.0
  0
LINE
  5
2A
100
AcDbEntity
  8
LAYER_1
 62
     7
100
AcDbLine
 10
51.936882
 20
26.023562
 30
0.0
 11
52.560788
 21
25.4
 31
0.0
  0
LINE
  5
29
100
AcDbEntity
  8
LAYER_1
 62
     7
100
AcDbLine
 10
61.3854
 20
25.4
 30
0.0
 11
62.177428
 21
26.192027
 31
0.0
  0
LINE
  5
28
100
AcDbEntity
  8
LAYER_1
 62
     7
100
AcDbLine
 10
63.5
 20
30.699935
 30
0.0
 11
63.5
 21
29.548928
 31
0.0
  0
LINE
  5
27
100
AcDbEntity
  8
LAYER_1
 62
     7
100
AcDbLine
 10
63.5
 20
28.576378
 30
0.0
 11
63.5
 21
27.5146
 31
0.0
  0
LINE
  5
26
100
AcDbEntity
  8
LAYER_1
 62
     7
100
AcDbLine
 10
55.127729
 20
38.1
 30
0.0
 11
53.445144
 21
36.621365
 31
0.0
  0
LINE
  5
25
100
AcDbEntity
  8
LAYER_1
 62
     7
100
AcDbLine
 10
55.127729
 20
38.1
 30
0.0
 11
59.172271
 21
38.1
 31
0.0
  0
LINE
  5
24
100
AcDbEntity
  8
LAYER_1
 62
     7
100
AcDbLine
 10
32.564593
 20
25.4
 30
0.0
 11
48.943438
 21
25.4
 31
0.0
  0
LINE
  5
23
100
AcDbEntity
  8
LAYER_1
 62
     7
100
AcDbLine
 10
46.821604
 20
29.106234
 30
0.0
 11
42.467003
 21
29.106234
 31
0.0
  0
ENDSEC
  0
SECTION
  2
OBJECTS
  0
DICTIONARY
  5
19
100
AcDbDictionary
  3
ACAD_GROUP
350
1A
  3
ACAD_MLINESTYLE
350
1B
  0
DICTIONARY
  5
1A
102
{ACAD_REACTORS
330
19
102
}
100
AcDbDictionary
  0
DICTIONARY
  5
1B
102
{ACAD_REACTORS
330
19
102
}
100
AcDbDictionary
  3
STANDARD
350
1C
  0
MLINESTYLE
  5
1C
102
{ACAD_REACTORS
330
1B
102
}
100
AcDbMlineStyle
  2
STANDARD
 70
     0
  3

 62
     0
 51
90.0
 52
90.0
 71
     2
 49
0.5
 62
   256
  6
BYLAYER
 49
-0.5
 62
   256
  6
BYLAYER
  0
ENDSEC
  0
EOF
